<svg width="65" height="32" viewBox="0 0 130 64" fill="none" xmlns="http://www.w3.org/2000/svg">
<path fill-rule="evenodd" clip-rule="evenodd" d="M1.53594 29.4635C0.893079 28.228 1.56288 28.5515 0 27.047C0.0769894 28.3254 0.142433 28.0604 0.465788 28.9452L1.33192 32.0282C1.60908 33.1196 1.73611 32.8234 2.1942 34.3942L2.66384 35.505C2.9564 36.1676 3.39523 37.0095 3.63005 37.7657C3.75708 38.1749 3.88411 38.5569 4.03039 38.9467C4.16897 39.317 4.45769 39.6366 4.66941 39.8899C4.79644 40.0419 5.09285 40.65 5.23528 40.9072C5.42775 41.2502 5.71261 41.5075 5.92048 41.87C6.32468 42.5677 6.95214 42.9262 7.41793 43.5382L9.74685 46.021C10.3435 46.7304 10.6823 46.9604 11.5253 47.4125C11.8102 47.5645 11.7986 47.6542 12.0296 47.775C12.2529 47.8919 12.3452 47.8647 12.5878 48.0089C12.9304 48.2115 13.1729 48.5351 13.4962 48.6871C14.1506 48.995 14.9937 49.3497 15.5672 49.7823C15.8675 50.0084 16.0561 50.3202 16.468 50.5385C17.0993 50.8698 17.9039 51.3024 18.4043 51.7702C18.6622 52.0118 18.5429 51.8949 18.9625 52.0001C19.128 52.043 19.3859 52.1132 19.5861 52.1872C19.998 52.3392 20.3945 52.4328 20.8179 52.6121C21.2414 52.7914 21.6186 52.8693 21.9304 53.072C22.3385 53.3331 22.5733 53.3838 23.0044 53.5865L26.2187 55.1963L29.664 57.3634C29.8526 57.4725 30.0066 57.531 30.1914 57.6206L32.324 58.6652C33.244 59.1797 34.1833 59.4526 35.1225 59.893L37.4669 60.7934C38.0366 61.0116 38.7487 61.152 39.3108 61.3196C39.5918 61.4053 39.5995 61.4521 39.8805 61.5573L42.2941 62.3836C43.1602 62.6877 44.0264 62.6565 44.8771 62.9761C45.0888 63.054 45.2235 63.0891 45.4699 63.1671C45.8895 63.2996 46.3745 63.3269 46.8211 63.4165C48.6958 63.7946 48.7381 63.5218 49.6581 63.6309C50.7899 63.7634 54.0504 63.6738 55.1013 63.4009C56.0713 63.1515 57.1146 63.5685 58.0769 63.4126C59.0662 63.2567 60.044 63.5062 61.0603 63.4009C61.3182 63.3737 61.4568 63.3269 61.784 63.3814C62.6347 63.5257 63.6471 63.5218 64.5171 63.5023C64.6326 63.5023 64.6364 63.4906 64.7057 63.4828C64.9059 63.4633 64.7096 63.4672 64.8635 63.4711C65.0098 63.475 65.3255 63.5062 65.5872 63.4828C67.1463 63.3464 68.4281 63.4243 69.9487 63.4438C70.7417 63.4516 71.5231 63.1983 72.2006 63.3775C72.8781 63.5568 72.7241 63.3308 73.3786 63.3503C73.7019 63.362 73.7904 63.3035 74.0946 63.2957C74.6989 63.2801 75.0646 63.2138 75.5343 63.1866C76.666 63.1242 77.3627 63.4906 78.4483 63.1749C79.0026 63.0151 80.7349 63.0813 81.32 63.0579C82.3132 63.019 83.11 62.8669 84.1109 62.8358C85.1733 62.8007 85.9201 62.6682 86.9479 62.5317C87.5792 62.446 89.146 62.3524 89.6387 62.0133C89.9351 61.8107 90.424 61.6976 90.7589 61.5573C90.986 61.4638 91.1169 61.4716 91.3748 61.3819L93.1225 60.7076C93.6614 60.4738 94.2696 60.4075 94.7508 60.1892L94.8971 60.1152C95.1819 59.9904 95.1704 60.0372 95.4245 59.8657C96.0904 59.4175 97.072 59.3551 97.7957 59.0238C98.4732 58.712 98.3039 58.864 99.0507 58.7003C99.6627 58.5678 100.152 58.2599 100.698 57.9909C101.399 57.644 102.219 57.4647 102.869 57.0243C103.089 56.8723 103.127 56.8801 103.401 56.7709L104.259 56.3422C104.259 56.3422 104.294 56.3266 104.305 56.3188L104.448 56.2486C104.825 56.0732 105.152 55.8745 105.576 55.8121C106.938 55.6094 107.019 55.2898 107.928 54.939C108.628 54.6701 109.575 54.4596 110.226 54.0932C110.522 53.9256 110.499 53.9412 110.834 53.8359C111.284 53.6956 114.495 51.3297 114.991 50.8269C115.338 50.4761 115.449 50.4177 115.923 50.176L117.374 49.2639C117.763 48.9794 119.11 47.6152 119.391 47.2527C119.838 46.6758 122.094 44.7309 122.744 44.2125C122.964 44.041 124.041 42.5521 124.118 42.4118C124.773 41.2035 124.992 41.0514 125.778 40.0341C125.935 39.8315 125.978 39.8198 126.143 39.6015C127.275 38.0736 127.106 38.514 128.033 36.6665C128.461 35.8207 128.719 35.392 128.969 34.4253C129.281 33.2287 130.085 31.9113 129.993 30.6446C129.962 30.2431 130.02 29.4129 129.985 29.2141C129.735 29.3466 129.1 30.6718 128.865 31.0109L127.633 32.6636C127.352 33.0378 126.975 33.5561 126.632 33.7549C126.513 33.8251 126.632 33.8173 126.455 34.0862C126.289 34.3396 126.155 34.3513 126.016 34.5812L125.177 35.6141C123.706 37.0797 123.622 37.142 122.132 38.3192C121.435 38.8687 120.569 39.3287 119.834 39.8159C119.487 40.0458 119.118 40.3693 118.752 40.5993L116.901 41.6088C116.766 41.6712 116.689 41.7024 116.57 41.7686C116.554 41.7764 116.539 41.7881 116.523 41.7959C116.508 41.8037 116.493 41.8154 116.477 41.8232C116.008 42.0921 115.419 42.2909 114.953 42.517C114.679 42.6495 113.925 43.0744 113.632 43.051C113.933 42.6768 114.88 42.5521 114.564 42.2675C114.449 42.1623 114.41 42.2792 114.252 42.3884C114.244 42.3923 114.233 42.404 114.225 42.4079C114.218 42.4079 114.202 42.4195 114.194 42.4234C114.187 42.4273 114.01 42.4858 113.96 42.5053L109.14 44.6997C108.894 44.7933 108.848 44.84 108.601 44.8985L107.504 45.2805C107.169 45.4091 106.827 45.565 106.507 45.7131C106.199 45.8573 105.695 45.9665 105.371 46.0639L99.6512 47.6932C99.3894 47.7672 97.4955 48.2077 97.2914 48.1063C98.0267 47.7048 99.8821 47.4515 100.856 46.8357C100.229 46.8084 99.1392 47.3034 98.5194 47.4476C98.6657 47.2917 98.9159 47.2098 99.1777 47.0968L97.5532 47.584C97.3569 47.6464 97.3184 47.7048 97.1644 47.7516C96.1982 48.0595 94.9548 48.3129 93.9424 48.5273L92.0947 48.8897C91.0707 49.108 89.2615 49.1275 88.1721 49.2327C87.8025 49.2678 87.4214 49.2172 87.0519 49.2483C86.6323 49.2873 86.4629 49.1977 86.0664 49.2444C85.4428 49.3146 84.6459 49.4081 84.107 49.2055C84.6152 49.2094 84.977 49.1782 85.462 49.1236C85.8239 49.0846 86.3012 48.995 86.5938 48.8586C86.255 48.8508 85.9856 48.9092 85.6468 48.9482C83.5873 49.1782 81.1622 49.186 79.1951 48.6793L77.8208 48.4532C76.8238 48.3558 75.9423 47.9114 74.9607 47.7984C74.6104 47.7594 74.5295 47.6776 74.16 47.5723C73.5595 47.4008 73.1322 47.3463 72.5971 47.1163C72.2584 46.9721 72.1775 46.9409 71.808 46.8396C70.7378 46.5433 70.657 46.3445 70.0103 46.1107C69.8755 46.0639 69.7601 46.06 69.6022 46.0093C68.5706 45.678 67.7314 45.07 66.8845 44.6919C66.2994 44.4269 66.3725 44.6062 65.6142 44.0254C65.006 43.5577 65.1445 43.4213 64.8135 42.8093C64.4054 42.0532 64.1321 40.7903 64.1745 39.9289C64.2014 39.3481 64.3131 39.5041 64.4978 39.5352C66.1069 39.8003 66.4457 37.2512 67.1078 36.6003C67.2656 36.4444 67.4619 36.4015 67.612 36.573L67.3541 36.7951C67.2387 36.8965 67.231 36.8809 67.1463 37.0563C67.689 36.8614 68.0162 36.2183 68.3473 36.4327C68.0971 36.5262 67.9008 36.5184 67.9085 36.7757C68.0509 36.8848 67.8507 36.8614 68.1664 36.8458C68.7707 36.8146 70.8879 34.4916 70.5222 33.9771C70.272 34.4058 70.145 34.7917 69.7985 35.01C69.7908 34.667 69.9487 34.2421 69.8986 33.9654C69.4829 31.6112 66.0992 33.0222 64.544 32.839C63.7895 32.7493 63.1005 32.5388 62.5231 32.4609C62.2305 32.4219 61.7185 32.4063 61.4529 32.3829C60.683 32.3206 59.9555 32.3946 59.2856 32.5739C58.6505 32.7454 58.1616 33.0689 58.0962 33.7393C57.9845 34.8736 58.2425 34.8502 58.5004 35.657C58.2078 35.544 57.6573 34.8307 57.4687 34.5423L57.4148 34.4604C57.3224 34.324 57.4264 34.4097 57.3186 34.3357C57.3417 34.589 57.5111 34.9009 57.5996 35.1464C57.7151 35.4777 57.9114 35.4231 58.1847 35.7077C58.3117 35.8402 58.3194 35.8597 58.4773 35.9883C58.6967 36.1598 58.612 36.1091 58.843 36.2105C59.124 36.3352 59.3011 36.4755 59.6437 36.4833C59.5397 35.6024 59.1817 36.3586 58.7044 35.4115C58.5158 35.0412 58.381 34.3201 58.535 33.903C58.6235 33.6575 58.9354 33.334 59.1355 33.2093C60.0325 32.6636 60.5136 32.9052 61.2758 32.8507C62.3306 32.7766 62.627 32.9676 63.5624 33.1118C65.7104 33.4431 67.077 32.8624 68.5167 33.0806C69.6099 33.2482 69.7755 34.8619 69.1326 35.6414C69.0133 35.7856 68.6553 36.2222 68.4782 36.3235C68.7399 34.4643 67.4889 34.4019 66.8653 35.9299C66.515 36.7873 66.1416 38.136 65.541 38.8064C65.2215 39.165 64.571 39.391 64.136 38.9818C64.3669 38.553 64.2399 38.2022 64.2784 37.715C64.3015 37.4266 64.494 36.6509 64.2014 36.421C64.1321 36.7912 64.109 38.6699 63.8165 39.0013C63.5047 39.2156 63.0851 39.1416 62.8349 38.8999C62.1458 38.2295 62.2805 35.7973 60.8524 34.9164C60.3828 34.628 59.7553 34.706 59.6744 35.4076C59.5936 36.1053 59.7745 36.0585 59.9208 36.4872C60.4636 36.4911 60.5829 36.4599 61.0141 36.686C61.1026 36.3937 60.991 36.4872 61.1988 36.3742C61.3297 36.6081 61.4645 36.7912 61.6223 36.9861L61.5722 36.4405C61.8917 36.6821 61.9918 37.945 62.1381 38.3698C62.4345 39.2351 62.8002 39.3131 63.4469 39.5742C63.4546 40.1628 63.2275 40.1004 63.3545 40.689C63.4277 41.0242 63.3391 41.3399 63.2506 41.7063C62.935 43.0276 63.1005 42.4585 62.473 43.5304C62.3652 43.7136 62.3729 43.7643 62.1612 43.8539C61.5838 44.0917 60.9409 44.6101 60.0748 45.0037C59.8015 45.1285 59.5166 45.2298 59.2279 45.374L57.4456 46.1536C55.7903 46.9604 55.3284 47.0188 53.7809 47.5645L51.8677 48.1141C51.887 47.7438 52.2219 47.7984 52.4759 47.5957L52.603 47.471C51.7022 47.7087 51.1979 48.0595 50.1278 48.2349C49.7313 48.3012 49.3502 48.5117 48.9537 48.5701C48.6342 48.6208 48.1376 48.7533 47.7296 48.8508L45.0503 49.3029C44.4691 49.3497 42.7791 49.7667 42.3788 49.5602C42.8253 49.3614 43.6838 49.4198 44.1919 49.2289C44.0726 49.1158 44.1957 49.186 44.0187 49.147C43.8069 49.0963 43.6568 49.186 43.4566 49.2444C42.8561 49.412 42.1748 49.4159 41.5704 49.4822C41.0815 49.5368 41.0969 49.6186 40.9198 49.3341L38.9104 49.5641C38.4331 49.5563 38.2637 49.6303 37.7787 49.5563C37.463 49.5095 37.0781 49.5134 36.7124 49.4666C36.108 49.3887 33.2478 48.9482 32.9283 48.7611C33.6097 48.7494 33.6713 48.6676 34.2025 48.8508C34.2911 48.882 35.111 48.7767 35.5537 48.8352C35.3612 48.6286 35.2496 48.6325 34.8531 48.6559L33.1478 48.5584C32.4087 48.4649 31.4925 48.3675 30.815 48.1804L29.4022 47.7828C29.0789 47.6698 28.9057 47.7399 28.5939 47.6308L28.2897 47.5022C27.4967 47.3735 26.0301 46.9292 25.2602 46.5823C24.9946 46.4615 24.2593 46.1613 23.9514 46.0795L24.3748 46.0093C24.2747 45.7209 24.2555 45.7521 23.9052 45.6975L21.2029 45.0232C20.5215 44.7699 19.9479 44.4347 19.2743 44.2086L16.4757 42.973C16.1408 42.8015 15.9176 42.6885 15.5596 42.5326L14.6511 42.0726C13.8119 41.6712 12.9342 41.0047 12.1374 40.4746L5.8204 35.2049C5.66257 35.0529 5.65487 34.9944 5.53554 34.8385C5.30842 34.5384 5.089 34.5345 4.85418 34.1564C4.55392 33.677 3.53381 32.5934 3.05648 31.9347C2.88325 31.6969 2.9102 31.771 2.76777 31.4943C2.69463 31.3578 2.63689 31.237 2.5291 31.0928L1.51669 29.4441L1.53594 29.4635ZM123.36 37.8163C123.653 37.6254 123.895 37.3564 124.195 37.0914C124.365 36.9433 124.438 36.838 124.584 36.6899C124.723 36.5496 124.831 36.5067 124.977 36.3664C125.3 36.0585 126.212 34.932 126.455 34.8112C126.44 35.0178 126.055 37.0914 125.916 37.4032L125.008 38.8259C124.769 39.0519 124.915 38.9077 124.865 38.896L124.704 38.7869C124.607 39.0363 124.492 39.1455 124.23 39.2234C124.057 38.9545 123.895 38.8492 123.783 38.5296C123.622 38.0697 123.726 38.249 123.418 37.8943L123.36 37.8163ZM8.10313 39.7262C7.73743 40.4044 7.37558 39.9328 7.07148 39.5898C6.8867 39.3793 6.33238 38.7401 6.27079 38.5218C6.07831 37.8358 5.51244 36.1637 5.67027 35.5362C5.95128 35.6297 6.00517 35.8285 6.39782 36.1014L6.77507 36.3703C7.16771 36.6938 7.35634 36.9199 7.82982 37.1849C8.38414 37.4967 8.55737 37.7306 8.44959 38.1866C8.38415 38.4751 8.22246 39.5002 8.10313 39.7223V39.7262ZM119.503 40.572C119.884 40.4044 120.142 40.2212 120.442 40.0147C120.642 39.8743 120.681 39.8198 120.866 39.7184C121.697 39.2546 122.228 38.5647 122.971 38.1554C122.964 39.3676 122.552 41.1177 121.763 42.0298L120.719 42.6768C120.5 42.478 120.746 42.7119 120.608 42.5443C120.565 42.4936 120.535 42.4546 120.504 42.4195C119.314 40.9969 119.711 41.718 119.507 40.572H119.503ZM12.8072 41.5426C12.8072 41.5426 12.7956 41.5659 12.7995 41.5815C13.0843 41.7725 13.0805 41.7335 13.4269 41.8856C13.6271 41.9713 13.9158 42.096 13.9351 42.2909C13.962 42.5871 13.9813 42.2948 13.7926 42.5871L13.2537 43.4329C12.4338 44.5516 12.4261 44.2749 11.8564 44.1657C11.5984 44.1151 11.7101 44.1813 11.5407 44.154C10.7554 44.0293 9.96628 42.2753 9.70066 41.5036C9.39656 40.6149 9.03085 39.5391 9.0732 38.4439C9.30802 38.5374 9.44659 38.6544 9.61212 38.7947L11.8333 40.6773C12.5146 41.219 12.2644 41.145 12.8534 41.3087C12.8957 41.4685 12.8187 41.5659 12.8187 41.5426H12.8072ZM119.087 41.032C119.026 41.1684 119.029 41.2035 119.01 41.3204C118.741 42.9574 118.452 43.4446 117.64 44.7971C117.42 45.1635 117.247 45.3078 117.012 45.604C115.846 47.0812 115.996 46.4576 114.91 45.3857C114.606 45.0856 114.807 45.2103 114.637 44.9453C114.61 44.9024 113.848 44.2866 113.863 43.6356C113.871 43.3433 113.983 43.4252 114.221 43.3121L119.233 40.8098L119.087 41.032ZM18.6006 44.5633C18.5275 44.7855 18.4313 44.8868 18.4351 45.2103C18.4428 45.7755 18.4851 46.7499 18.0809 47.1826C17.8307 47.4515 17.2187 47.4632 16.8607 47.3618C15.9483 47.1007 15.8059 47.0383 15.2439 45.4481L14.193 42.3572C14.4702 42.4273 14.4856 42.5326 14.705 42.6924C14.9513 42.8678 15.0129 42.8132 15.2477 42.9418C15.4325 43.0471 15.5826 43.1874 15.7674 43.2848L16.8607 43.8383C17.2379 43.9358 17.1417 43.811 17.4997 44.002C17.9154 44.2281 18.2388 44.3255 18.6006 44.5672V44.5633ZM108.901 45.7599C109.787 45.3857 108.855 45.604 109.975 45.2064C110.38 45.0622 110.699 44.9063 111.084 44.7504L113.298 43.7876C113.301 45.1557 113.221 45.1986 112.501 46.5784C112.416 46.7421 112.397 46.7538 112.308 46.8902C112.058 47.2839 111.677 47.9153 111.319 48.2038C111.15 48.3402 110.98 48.4415 110.792 48.5584C110.441 48.3753 109.918 47.5762 109.702 47.2566C109.352 46.7343 109.175 46.6525 108.901 45.7599ZM23.093 49.794C22.9852 50.024 22.9428 50.0902 22.7812 50.3475C22.4155 50.2501 22.2076 50.4527 21.8111 50.1838C21.6841 50.098 21.584 50.0084 21.4454 49.9032C21.0412 49.5952 20.3406 49.2483 19.9479 48.3791C19.2858 46.9058 19.1857 46.4849 18.9009 44.8985C18.8778 44.7816 18.8662 44.8088 18.8547 44.6412L22.5117 45.9041C22.7119 45.9937 23.016 46.1029 23.1738 46.1808C23.7204 46.4537 23.5125 47.3657 23.5125 47.584C23.5087 48.0985 23.5318 49.0223 23.2431 49.5134C23.143 49.6849 23.193 49.5757 23.093 49.7979V49.794ZM58.7814 46.5628C58.7814 46.3173 60.2172 45.7326 60.6676 45.4637L63.0196 43.9436C63.1775 43.7876 63.3584 43.62 63.497 43.4836C63.547 43.8227 63.5778 43.6278 63.6356 44.0059L63.8319 47.0461C63.8319 47.2878 63.8203 47.5217 63.8396 47.7633C63.8973 48.5351 63.7433 51.7195 63.4007 52.3743C63.3391 52.4873 63.2121 52.7524 63.1467 52.8381C63.0312 52.994 62.8888 53.0759 62.6963 53.1811C62.3306 53.3877 62.3806 53.5475 61.9649 53.337C61.9495 53.3292 61.9341 53.3175 61.9187 53.3098C61.4837 53.0642 61.0256 52.7407 60.8293 52.3041C60.5714 51.7234 60.2442 51.0998 59.9324 50.6164C59.4666 49.8915 58.7698 47.6815 58.7775 46.5589L58.7814 46.5628ZM65.2793 53.1461C65.2177 53.1538 65.2562 53.1889 65.1599 53.1577C64.7942 53.0369 64.6326 50.8386 64.5979 50.3163C64.5171 49.2133 64.4901 47.9972 64.3785 46.8551C64.3516 46.5667 64.2938 46.4264 64.263 46.0522C64.2399 45.7638 64.1783 45.6313 64.1937 45.3701C64.2977 43.8734 63.8319 43.3589 65.2408 44.3645C65.9876 44.8946 66.0415 44.84 66.6343 45.2025L68.4474 46.1224C68.6707 46.2081 68.8477 46.2978 69.0595 46.3757C69.0479 46.7577 68.8978 47.2956 68.84 47.6308L68.7053 48.4337C68.6707 48.5779 68.6553 48.6793 68.6283 48.7884C68.4512 49.4783 68.0239 50.3631 67.6813 51.0296C67.639 51.1114 67.5851 51.1933 67.5197 51.3063L66.7921 52.3821C66.6728 52.5146 66.4996 52.69 66.3456 52.7992C65.7258 53.2357 65.6873 53.0876 65.2793 53.1538V53.1461ZM103.216 47.3657C103.624 47.241 104.197 47.1124 104.629 46.9877C105.102 46.8512 105.448 46.6836 105.922 46.5628L107.851 46.0678C108.64 46.0444 107.673 48.6949 107.362 49.2327C107.038 49.7862 106.311 50.9516 105.618 50.9438C104.786 50.936 104.49 50.7645 104.009 49.3146C103.778 48.6208 103.466 48.0907 103.216 47.3579V47.3657ZM24.2286 47.3579C24.1631 47.1436 24.0053 46.6291 24.0053 46.5979C24.217 46.4459 25.214 47.0851 26.0263 47.3034C26.6422 47.4671 27.8701 47.9114 28.436 47.9192L28.5554 50.6203C28.2012 51.6337 28.1358 50.9049 27.7123 52.3782C26.646 52.651 26.365 51.9884 25.5143 50.7334C25.3757 50.5268 25.2333 50.2072 25.1216 49.9772C24.2209 48.1258 24.5981 48.5935 24.2209 47.3541L24.2286 47.3579ZM97.1952 48.7572C97.6841 48.6715 98.1653 48.5039 98.6542 48.4571L99.4625 48.3168C99.7128 48.2505 99.9399 48.2427 100.202 48.2038C100.856 48.1024 102.538 47.4905 103 47.5294L102.912 47.7204C102.912 47.7204 102.896 47.7555 102.892 47.7711L102.865 47.888C102.792 48.3519 102.889 48.4337 102.611 49.2327C102.45 49.7044 102.207 50.2578 101.98 50.6281C101.595 51.2596 101.183 52.6471 100.159 52.8303C99.9283 52.5419 99.7551 52.5497 99.2046 52.0079C98.1768 50.9984 97.8843 50.7061 97.4647 49.3575C97.3453 48.9716 97.276 49.0223 97.1952 48.7611V48.7572ZM73.136 51.8325C72.9628 52.1054 72.0851 53.1538 71.5385 52.7329C71.1959 52.4678 70.6993 50.5307 70.5877 49.9382L70.2489 46.8746C70.9534 47.1085 71.7079 47.4554 72.3623 47.6815L74.4218 48.3597C74.4141 48.7689 74.314 48.8625 74.2524 49.1977C74.1908 49.5212 74.1638 49.7044 74.1023 49.9811C73.8828 50.9867 73.5672 51.1543 73.1399 51.8364L73.136 51.8325ZM58.2886 46.6603C58.2886 46.9097 58.2963 47.1864 58.2886 47.432C58.2732 47.7789 58.2463 47.7594 58.1539 48.0673C57.8459 49.0885 57.5688 50.7373 57.23 51.3375C56.9798 51.7819 57.1376 51.6961 56.7719 52.3314C56.1137 53.4696 55.4747 53.6722 54.5624 52.2379C54.3391 51.8871 54.3083 51.5441 54.162 51.2089L53.7732 50.2462C53.6423 49.7745 53.4884 48.8079 53.6731 48.3402C53.7771 48.079 53.7386 48.1258 54.0388 48.0634C54.7972 47.9114 55.4131 47.6191 56.1368 47.3657C56.8874 47.1007 57.5495 46.7889 58.2886 46.6681V46.6603ZM46.4862 49.5991C46.771 49.529 46.9905 49.5134 47.2907 49.4822L48.638 49.1197C48.8805 49.0535 49.1231 49.0651 49.3617 48.995C49.381 48.9911 49.3964 48.9833 49.4156 48.9755L49.5157 48.9365C49.6466 48.8936 49.4272 48.9209 49.6697 48.8936C49.8506 48.8742 49.9006 48.9209 50.0238 48.9287C50.2471 48.9443 50.5012 48.8625 50.7398 48.8352C51.0401 48.804 51.2595 48.7611 51.502 48.7105C51.8177 48.6442 51.8061 48.5468 52.1487 48.5351C51.9909 48.8079 51.9986 48.6247 51.964 49.0262C51.8254 50.6281 52.0025 50.8269 51.9332 52.4289L51.8369 53.5319C51.7984 53.8554 51.8831 53.6683 51.8947 54.023C51.8947 54.1556 51.8562 54.4167 51.8523 54.6038C51.8292 55.5003 51.4173 56.9814 50.505 56.0382C50.3241 55.8511 50.1586 55.6328 49.9853 55.4067C49.5581 54.8571 48.842 54.1867 48.5841 53.8593L47.6449 52.499L46.4785 49.603L46.4862 49.5991ZM32.1893 48.9794C33.04 49.2717 34.522 49.5446 34.7568 49.6459C34.7414 50.0084 34.7183 49.7161 34.6606 50.0279C34.5913 50.4099 34.7338 50.6164 34.4912 51.1894C33.9023 52.577 34.087 52.2964 32.9591 53.1811C32.0699 53.8788 31.4078 52.9044 30.9228 52.2418C30.7688 52.0313 30.7226 51.9417 30.584 51.7234C30.4724 51.548 30.5301 51.6649 30.4223 51.4466C29.9912 50.5463 29.5947 49.3458 29.5447 48.3363C30.4108 48.4298 30.1259 48.4259 30.9574 48.6325L32.1854 48.9794H32.1893ZM92.5528 49.2561C93.0108 49.26 93.1456 49.3224 93.696 49.2561L96.714 48.8975C96.7448 49.72 96.4253 50.9438 96.0943 51.6415C95.8094 52.2379 94.8355 53.7112 94.3235 53.9724L93.7846 54.0932L92.9954 52.9356C92.6798 52.4679 91.7559 51.6104 91.4287 51.053C91.14 50.558 90.9283 49.8096 90.6935 49.4666C91.3094 49.3809 91.9253 49.2522 92.5489 49.26L92.5528 49.2561ZM77.4975 49.1236C79.1335 49.5641 79.3106 49.1782 79.0989 49.872C78.7332 51.0608 79.122 50.3904 78.4406 51.8949C78.0095 52.842 76.974 54.4167 76.0539 54.8416C74.926 55.36 75.3225 53.8944 75.0723 52.0742C75.0261 51.7312 75.08 51.3375 75.0723 50.9244C75.0569 50.4099 74.9183 49.451 75.1493 48.8781C75.157 48.8586 75.1647 48.8391 75.1724 48.8235L75.2571 48.6442L77.5013 49.1236H77.4975ZM85.0694 49.9655C85.8239 49.8096 86.7978 49.872 87.6139 49.8291C88.2837 49.794 89.3923 49.6966 90.0044 49.5446C89.9967 50.3514 89.9544 50.4839 89.7349 51.1387C89.3038 52.4094 89.4847 51.7507 89.2153 52.4289C89.0882 52.7446 89.0189 52.7056 88.8188 52.9707C88.7033 53.1227 88.6186 53.2747 88.4569 53.4774C88.2144 53.7736 87.8795 54.0893 87.5215 54.2608C86.7516 54.6311 86.6053 53.9958 86.4359 53.5826L86.1934 53.1733C85.4928 51.9105 85.924 51.8871 85.5121 51.2011C85.3004 50.8464 85.0771 50.5034 85.0694 49.9694V49.9655ZM41.274 50.0591C42.9485 49.9694 44.1649 49.8759 45.7894 49.755L45.6547 52.6549C45.6547 53.1967 45.7047 54.8065 45.1851 55.0598C44.6808 55.3054 44.0957 54.4947 43.8223 54.2179C43.3835 53.7736 43.268 53.7346 42.706 53.1071C42.5713 52.9551 42.6021 52.9278 42.4827 52.7641L42.2864 52.5224C42.2864 52.5224 42.2441 52.4445 42.2364 52.425C42.1709 52.3041 42.1055 52.1911 42.0323 52.0547C42.0246 52.043 42.0131 52.0235 42.0054 52.0079C41.9977 51.9923 41.99 51.9767 41.9823 51.9611L41.2817 50.0591H41.274ZM79.8303 49.7433C79.8303 49.3809 79.9342 49.5017 80.2422 49.5329L83.1754 49.8486C83.6066 49.8603 84.0339 49.8408 84.4612 49.872C84.4535 50.8269 83.5065 52.4016 82.9945 53.2357C82.6096 53.8632 82.0322 54.5726 81.1968 54.635C81.1275 54.062 81.1275 53.9841 80.8889 53.4774C80.5925 52.8537 80.554 52.9278 80.3884 52.6199L80.2499 52.3197C79.9958 51.8169 80.1536 52.0001 80.0189 51.5402C79.7841 50.7412 79.8187 50.5073 79.8226 49.7511L79.8303 49.7433ZM36.2466 49.8993C37.1897 50.0941 39.5725 50.0201 40.6619 50.1136C40.9391 50.8971 41.224 52.4445 40.8044 53.3137C40.2962 54.366 40.0614 54.9936 38.7795 54.2023C38.1444 53.8087 37.2051 52.8031 36.8394 52.3275C36.2235 51.5324 36.1465 51.3492 35.8077 50.558C35.7 50.3085 35.6692 50.0941 35.6307 49.8057C35.9887 49.8057 35.9425 49.8408 36.2427 49.9032L36.2466 49.8993ZM100.656 54.8104C100.868 54.3543 101.014 53.9412 101.26 53.5358C101.83 53.5124 102.015 53.7892 102.369 54.0308C102.631 54.214 102.885 54.7402 103.016 55.0598C102.442 55.4379 101.922 55.5899 101.26 55.8043L100.055 56.1122L100.652 54.8104H100.656ZM96.2906 57.3361C96.3368 57.1529 96.5755 56.9346 96.7063 56.576C96.8257 56.2564 96.8988 55.9875 97.0374 55.6718L97.5686 54.3232C97.661 54.0776 97.661 54.1361 97.7495 53.9256C99.1507 53.9334 100.009 55.4067 99.8667 56.0226C99.7513 56.233 99.7166 56.2058 99.4587 56.2759C98.9121 56.4279 98.9005 56.5566 98.0998 56.7709C97.7226 56.8723 96.6062 57.3361 96.2944 57.3322L96.2906 57.3361ZM31.812 56.1278C31.889 55.7731 31.6657 54.4986 32.4818 54.5025C33.0361 54.5064 33.1093 54.5726 33.2633 54.7168C33.5173 54.9546 33.6944 55.282 33.8445 55.5782C33.9254 55.7341 34.0832 55.9641 34.2025 56.1551C34.3142 56.3344 34.9031 56.9502 34.957 57.2776L33.9639 56.9658C33.5866 56.845 34.2757 57.0788 33.8522 56.9307L32.2008 56.2681C31.9891 56.1824 32.1084 56.1746 31.8082 56.12L31.812 56.1278ZM56.5294 56.0927C56.5294 55.8511 56.7565 55.2742 56.9529 55.1495C57.1146 55.0481 57.2185 55.0637 57.3956 54.9468C57.5996 54.8065 57.5072 54.7558 57.8229 54.7324C57.9422 54.9312 58.6274 56.7826 59.097 57.4764L59.9324 59.0199C59.8015 59.094 57.8537 59.3278 57.6342 59.3239C56.9683 59.3161 57.0068 59.2499 56.6988 58.2053C56.5564 57.7103 56.5256 56.6579 56.5294 56.0927ZM73.0937 58.7821C73.3208 58.4664 73.5133 58.1468 73.7366 57.8584L74.9992 56.0148C75.1609 55.8667 75.2725 55.7965 75.5843 55.89C75.7498 55.9368 75.8846 56.0732 75.8846 56.2876L75.7691 57.913C75.6767 58.3417 75.719 58.6145 75.6382 59.0082C75.0069 59.0004 74.033 58.8055 73.7981 58.8016C73.4401 58.8016 73.4863 58.8133 73.0975 58.7821H73.0937ZM92.6259 57.4803C92.7491 57.1997 93.8462 55.664 94.0502 55.0871C94.566 55.0793 95.0511 55.0871 95.3436 55.625C95.4014 55.7341 95.6631 56.5799 95.6631 56.7086C95.6554 57.6284 95.7209 57.5778 95.1204 57.6518C94.8509 57.683 94.6546 57.7687 94.3967 57.7648C93.8192 57.7609 94.1965 57.722 93.3226 58.0572C92.9839 58.1858 92.6066 58.2715 92.1948 58.3339L92.6259 57.4764V57.4803ZM47.872 59.8774C47.31 59.7956 46.5401 59.854 45.955 59.78C44.8579 59.6474 45.0465 59.8735 44.7385 58.8952C44.5845 58.4041 44.5884 57.5661 44.5845 57.149C44.5807 56.5254 44.6846 56.198 45.0734 55.7653C45.851 55.9758 46.4092 56.9346 46.8134 57.5583C47.5371 58.6769 47.2445 58.4314 47.6179 59.3356C47.8219 59.8228 47.8604 59.6124 47.8758 59.8774H47.872ZM60.837 56.6423C60.837 56.4708 61.2296 55.3833 61.5491 55.0676L61.8763 54.6934C62.1189 54.7792 62.2305 54.8844 62.3691 55.0832L62.6963 55.6172C63.1621 56.2681 63.5971 57.0827 63.9743 57.796C64.1167 58.065 64.4324 58.6457 64.4478 59.0199C63.9666 59.016 63.7741 59.0589 63.3391 59.0199C62.5577 58.9459 61.9649 58.9575 61.2181 59.0199C61.0564 58.7393 61.0449 58.3963 61.0025 58.0221C60.9217 57.3556 60.8216 57.5661 60.8331 56.6462L60.837 56.6423ZM76.5043 59.1212C76.6391 58.8484 76.8777 58.4976 77.0856 58.1741C77.4436 57.6128 78.3906 55.4769 78.6331 55.243C79.0373 54.8571 79.3837 55.2391 79.5146 55.5587C80.2191 57.2776 80.0651 57.1451 79.7995 59.2382C79.8611 59.2382 79.9573 59.246 80.015 59.2382C80.2729 59.1914 80.1036 59.2226 80.1767 59.1797L81.6819 57.2971C82.0707 56.5721 82.6365 55.13 83.4141 55.4808C84.057 55.7692 83.9723 58.0065 83.9376 58.6925C83.9145 59.1524 83.8568 58.8991 83.8068 59.2811C83.468 59.2811 83.0831 59.2499 82.7482 59.2811C80.4423 59.4954 80.3345 59.3863 78.0441 59.1992C77.9017 59.1875 77.8516 59.1875 77.6746 59.1992C76.7507 59.2655 77.5822 59.2343 76.5005 59.1212H76.5043ZM36.235 57.6206C36.2658 56.732 36.7971 54.8143 37.7286 54.6895C38.7295 55.7302 40.5311 58.8094 40.7197 59.0121C41.1123 59.437 40.5926 58.8211 40.8352 59.1329C39.7842 58.8172 38.9682 58.4547 37.9942 58.1312C37.771 58.0572 37.617 58.0728 37.3899 58.0104C37.1512 57.9441 37.0511 57.9052 36.7663 57.8467C36.67 57.8272 36.5699 57.8116 36.4776 57.7726C36.4468 57.7609 36.3544 57.7064 36.3313 57.6908L36.235 57.6167V57.6206ZM88.43 58.9497C88.4877 58.6535 88.7148 58.217 88.8842 58.0065C89.7157 56.9541 89.7234 56.5721 90.2315 55.4574C90.6858 54.4557 91.8098 55.625 91.5788 58.4586C90.7743 58.6769 88.7918 58.8523 88.43 58.9536V58.9497ZM41.2394 56.4435C41.2432 55.9407 41.555 55.3561 41.9438 55.1183C42.117 55.2313 42.2749 55.36 42.398 55.5548C42.4635 55.6601 42.4288 55.6133 42.4712 55.6913L43.3181 57.2192C43.422 57.4179 43.5606 57.5933 43.6376 57.7648C43.7415 57.9948 43.753 58.1195 43.8878 58.3846C44.061 58.7237 44.0033 58.6652 44.1033 59.0238C44.1996 59.359 44.265 59.3005 44.3882 59.5695C43.8647 59.5656 43.3065 59.4759 42.7791 59.4097C42.5328 59.3785 42.2941 59.3746 41.9708 59.359C41.6589 59.3434 41.5281 59.2616 41.2432 59.2187C41.4934 58.4275 41.224 57.987 41.224 57.6791L41.2355 56.4474L41.2394 56.4435ZM65.133 58.6535C65.1676 58.3924 65.2254 58.3339 65.2677 58.1195L65.5872 56.6189C65.7258 56.1161 66.6189 54.4986 67.2194 54.6506C67.9085 54.8221 68.2357 56.5799 68.2318 57.2309C68.2203 58.5132 68.1009 58.0416 68.0932 58.751L65.1368 58.6574L65.133 58.6535ZM69.6369 58.7588C69.6715 58.5132 70.0026 57.8506 70.1181 57.6284C70.7032 56.5137 70.9418 54.9741 71.9042 54.7987C72.6548 55.4145 72.5471 57.2854 72.3738 58.2988C72.293 58.7627 72.3623 58.7977 72.0043 58.7938L70.2951 58.7705C70.095 58.7705 70.145 58.8211 69.9025 58.8094L69.6407 58.7588H69.6369ZM52.5106 57.4959C52.5106 57.34 52.7031 56.693 52.7762 56.5332C52.9802 56.0849 53.0611 54.7636 53.7848 55.2859C53.9657 55.4184 54.1466 55.816 54.2544 56.0459C54.7202 57.0399 55.6325 58.3846 55.8173 59.3668C55.2784 59.3629 54.7317 59.3473 54.1967 59.3473C53.8387 59.3473 53.0957 59.5266 52.9841 59.4526C52.6761 59.2538 52.5029 58.0338 52.5067 57.492L52.5106 57.4959ZM84.1455 59.1212C84.1378 58.9731 84.7422 58.3573 84.8846 58.1858C85.1618 57.8428 85.2426 57.4063 85.5467 57.1217C86.2011 56.5098 85.8816 56.5254 86.2858 56.0537C86.5168 55.7848 86.9903 55.5392 87.4176 55.4496C87.7255 55.7887 87.6909 55.9485 87.7448 56.4474C87.8449 57.4101 87.8526 58.0767 87.8102 59.0082C87.1212 59.0004 86.6515 59.1836 85.9509 59.1797L84.4997 59.207C84.2687 59.2187 84.2533 59.2031 84.1494 59.1212H84.1455ZM48.2569 57.3829C48.2569 57.1061 48.4186 56.1044 48.7112 55.8004C48.9768 55.8667 48.8036 55.7926 48.996 55.968L50.3318 57.6479C50.5782 57.9402 50.9323 58.2676 51.1325 58.5717C51.3904 58.9614 51.4558 59.3395 51.7522 59.5968L51.1864 59.7994L48.9075 59.8579C48.2723 59.8501 48.2531 58.0182 48.2608 57.379L48.2569 57.3829Z" fill="white"/>
<path fill-rule="evenodd" clip-rule="evenodd" d="M54.9626 18.6102C54.9703 17.9817 54.7487 17.1476 54.6646 16.5347C54.6188 16.2088 54.592 15.7976 54.5118 15.4717L54.1718 14.0324C53.8165 12.7832 53.5796 12.244 53.083 11.0413C52.9722 10.7698 52.8079 10.5254 52.6742 10.2344C52.2845 9.4003 51.3943 8.20541 51.1002 7.67004C50.9091 7.32477 50.0496 6.33162 49.7668 6.07169C49.1632 5.51692 47.4517 3.96125 46.9206 3.62761C46.8099 3.55778 46.8404 3.56942 46.7449 3.51511C46.1871 3.19311 45.8777 2.8168 45.1327 2.47928L44.1776 1.93615C43.7268 1.64131 43.2683 1.52105 42.764 1.27276C42.126 0.958519 40.8691 0.512377 40.1356 0.372715C37.935 -0.0501496 35.9561 -0.077306 33.7746 0.112789L30.8634 0.725749C30.7144 0.787821 30.5998 0.846014 30.4661 0.908085C30.3286 0.970157 30.4585 0.927483 30.2636 0.989555C29.7402 1.15249 29.362 1.47837 28.8806 1.65683L26.47 3.02629C26.47 3.02629 26.4356 3.04569 26.4241 3.04957L25.2054 3.89918C25.022 4.03496 25.064 4.03884 24.9112 4.1785C24.6858 4.38799 24.4566 4.44618 24.2236 4.62464C23.8683 4.89233 24.128 4.67895 23.9638 4.98931C23.895 5.12122 23.8568 5.07854 23.7231 5.19881L23.2646 5.74581C23.15 5.91651 22.1796 6.84759 21.8434 7.32477C21.7556 7.44891 21.7326 7.55366 21.6295 7.68168C21.4423 7.91445 21.534 7.68944 21.3544 7.97264C21.2398 8.15498 21.3048 8.1511 21.1558 8.34896L20.2121 9.77661C20.0211 10.0908 19.9256 10.1878 19.7651 10.5564C19.6467 10.828 19.5397 11.0413 19.4098 11.3594C18.8597 12.7017 18.4815 13.1052 18.1376 14.8122L17.6983 16.7636C17.4309 17.9391 17.4614 19.2775 17.45 20.4607C17.4385 21.4461 17.7594 22.544 17.79 23.5605C17.8053 24.1734 18.1682 25.2791 18.3669 25.9037C18.5388 26.4507 19.7842 29.0344 20.0822 29.4107C20.6438 30.1168 20.598 30.2526 20.9609 30.8151L21.9619 32.1691C22.6839 33.2243 24.1662 34.5123 25.2207 35.2765C25.3429 35.3658 25.4346 35.4627 25.5301 35.5403C25.7785 35.7382 28.4413 37.4141 28.8157 37.546C29.0526 37.6275 29.0105 37.5887 29.2398 37.6934L31.3295 38.4693C31.4938 38.5198 31.6275 38.5198 31.7994 38.5702C32.2426 38.706 32.6017 39.028 33.5224 39.0513C34.2445 39.0668 34.9169 39.253 35.6542 39.2608C36.6896 39.2724 36.957 39.1754 37.6409 39.156C38.0076 39.1483 38.3323 39.1444 38.6991 39.0978L39.5511 38.9155C39.83 38.8651 40.2464 38.8069 40.51 38.7215L42.7258 37.9689C42.9512 37.8952 43.0353 37.934 43.1805 37.8564L43.509 37.6159C44.1738 37.2822 43.8605 37.5266 44.6742 36.999C45.3466 36.5645 45.6675 36.6421 46.3246 36.0951L47.5816 35.2145C47.8605 35.0166 47.956 34.8847 48.1852 34.6752C48.5978 34.2911 48.9913 33.9653 49.381 33.5812C50.4125 32.557 50.5386 32.2311 51.2912 31.3427C51.9941 30.5125 53.2014 28.3012 53.5796 27.1606L53.8967 26.3459C54.019 26.0123 54.1374 25.8028 54.1947 25.4265L54.806 22.6449C54.9473 21.2987 54.955 19.9409 54.9664 18.618M35.1767 0.632641C35.234 0.605485 35.4021 0.555051 35.4632 0.558931C36.0286 0.56281 35.8605 0.531775 35.979 0.706352L35.8873 0.72187C35.8873 0.72187 35.8529 0.72187 35.8376 0.72187C35.8223 0.72187 35.7994 0.72187 35.7841 0.72187C35.6084 0.72187 35.5434 0.683075 35.3142 0.79946C35.4518 0.962398 35.1881 0.892568 35.6008 0.943001C35.9904 0.989555 35.9561 0.706352 36.2464 0.613244L37.7784 0.671436C37.7784 0.671436 37.8166 0.714111 37.8242 0.698593C37.8319 0.683075 37.851 0.72187 37.8663 0.729629C37.3887 0.911965 37.4651 0.838255 37.0372 1.10594C36.361 1.5288 36.1853 1.55208 35.5205 1.99822L34.3591 3.20087C34.3591 3.20087 34.3362 3.22802 34.3247 3.23966C34.3133 3.2513 34.3018 3.26682 34.2903 3.27846C33.511 4.15522 33.9427 3.68192 33.3964 4.60912C33.2359 4.88069 33.0907 5.03199 32.9494 5.31131C32.8042 5.59451 32.6552 5.8816 32.5559 6.13764C32.4298 6.45576 32.384 6.70017 32.2732 7.092C31.9102 8.37999 31.8682 8.59336 31.7078 9.98222V10.4982C31.6084 10.9249 31.5855 11.8211 31.5817 12.2556C31.5817 12.597 31.7001 12.7289 31.6963 12.9035C31.6886 13.6445 31.6313 13.0237 31.7727 13.9626C31.8147 14.2535 31.9981 14.851 31.8033 15.0993C31.6963 14.8626 31.574 14.4398 31.4632 14.1449C31.2531 13.5669 31.2646 13.3729 31.1385 12.8957C30.6151 10.859 30.5693 9.69902 30.703 7.56142L31.0468 5.36174C31.1118 5.03975 31.234 4.8031 31.383 4.49662C31.681 3.87202 31.9675 3.41812 32.3687 2.97198C32.7507 2.54523 33.1442 2.09521 33.5683 1.66459C33.8739 1.35423 33.9847 1.31155 34.3247 1.12922C34.8252 0.861532 34.6227 1.00507 35.2302 0.977916C35.1958 0.849893 35.1423 0.72187 35.1652 0.632641H35.1767ZM28.6743 2.68489C28.9647 2.52971 28.5788 2.61118 28.957 2.54135C28.957 2.52971 28.9418 2.5142 28.9418 2.51032C28.9418 2.50644 28.9265 2.48316 28.9265 2.4754L28.9532 2.25039L29.3697 2.43661C29.3582 2.64222 29.3047 2.73145 29.255 2.85947C29.1977 3.01077 29.1977 3.01077 29.1519 3.18923C28.8768 4.291 28.8119 4.73327 28.7813 5.66047C28.7813 5.76909 28.7813 5.92039 28.7928 6.02902C28.8997 7.2045 28.9685 8.48862 29.3429 9.71842C29.5454 10.3818 29.8587 11.7668 30.107 12.3604C30.2484 12.7017 30.5234 13.369 30.5425 13.7065C30.2292 13.466 30.2598 13.5009 30.065 13.1285C29.3391 11.7474 28.2808 9.85032 28.0478 8.37223C27.9867 7.9804 27.9026 7.87566 27.853 7.54202L27.6123 5.88548C27.5855 5.58288 27.5779 5.36562 27.5741 5.00871C27.5664 2.76636 27.6657 3.22414 28.682 2.68101L28.6743 2.68489ZM32.9074 18.3542C32.7507 18.102 32.9799 17.1205 32.957 16.8101C32.9303 16.4493 32.9379 14.5251 33.0525 14.0673C33.1175 13.8074 33.0869 13.6367 33.1328 13.2914C33.1824 12.9035 33.2703 12.9268 33.3085 12.5582L33.6485 11.1926C33.6485 11.1926 33.6638 11.1577 33.6714 11.1422C33.6791 11.1267 33.6867 11.1073 33.6905 11.0918C33.8166 10.6999 33.6982 10.4943 34 10.2421C34.3706 9.93179 34 9.95119 34.2063 9.53608C34.2674 9.41582 34.298 9.49729 34.3668 9.31883C34.6342 8.605 35.1003 7.61961 35.5931 7.02993L36.4642 5.81952C36.8729 5.31131 37.6676 4.83801 38.1986 4.48886C39.0277 3.94573 39.2874 3.93021 40.2234 3.60433C42.3285 2.87499 44.7506 3.32501 46.5539 4.43455C47.0544 4.74103 47.1613 4.60136 47.0276 4.81474C47.2874 4.78758 47.2912 4.49274 47.2683 5.02035C47.3905 4.95828 47.4135 4.935 47.5969 4.9544C47.6847 5.71478 47.6427 5.05526 48.0973 5.53244C48.1737 5.61391 48.2501 5.75357 48.338 5.8622C48.4373 5.97858 48.5099 6.04454 48.6169 6.15704C49.0868 6.64198 49.7248 7.84462 49.8585 8.41491C49.8967 8.5856 49.9273 8.73302 49.9617 8.88432C49.9884 9.00847 50.0457 9.2296 50.0648 9.3615C50.3284 11.0258 49.2855 12.3293 48.2998 13.4195L47.1384 14.6182C46.7755 14.9829 45.6255 16.0265 45.2664 16.1196C46.1031 15.2001 46.2482 15.3476 47.1308 14.0324C47.3027 13.7725 47.4746 13.5514 47.6542 13.2643C48.5329 11.825 48.6742 9.53996 47.7879 7.9804C47.3562 7.22778 46.5462 6.42861 45.7287 6.11049C44.976 5.81565 43.807 5.48201 43.0124 5.68762C42.7908 5.74581 42.6953 5.72642 42.4546 5.75745C41.9388 5.82728 41.8089 5.93203 41.446 6.03678C41.0257 6.15704 40.8844 6.26567 40.5215 6.46352L38.8748 7.44891L37.5339 8.75242C36.8959 9.42357 36.8615 9.55936 36.3992 10.1917C35.7039 11.1422 35.7803 11.181 35.3486 11.7939C34.9475 12.3642 34.7106 12.888 34.3935 13.4932L33.9771 14.3777C33.595 15.2389 33.511 15.9722 33.3314 16.3989C33.0602 17.039 33.0907 17.6985 32.9074 18.3581V18.3542ZM26.768 9.59039C26.4547 9.26064 26.1643 8.86105 25.9084 8.42267C25.832 8.29464 25.874 8.35671 25.8129 8.23645C25.3697 7.36356 25.2627 7.32089 24.9265 6.34714C24.789 5.95531 24.6362 5.39666 24.8501 5.05526C24.8577 5.03975 24.873 5.02423 24.8807 5.01259L25.5913 4.52377C25.7135 4.49662 25.683 4.51214 25.7403 4.53153C25.7708 4.613 25.767 4.53153 25.7632 4.69835C25.7555 5.26864 25.5531 4.64404 25.8052 6.69241L26.0191 7.74763C26.1605 8.283 26.7718 9.53608 26.7756 9.59815L26.768 9.59039ZM23.4633 6.77776C23.49 6.85147 23.5168 6.94458 23.5626 7.03769L24.449 8.54293C24.5368 8.71751 24.3229 8.48862 24.5406 8.65543C24.7546 8.82225 24.6858 8.67871 24.8616 8.97355L26.4356 10.9637C26.5846 11.1344 27.2684 11.7901 27.299 11.953C27.0125 11.8444 25.7173 10.8124 25.278 10.3973C25.0831 10.215 24.8883 10.0171 24.6896 9.85032C24.1089 9.36538 22.7145 7.70496 22.4738 7.23166C22.5999 7.13855 22.7756 6.95234 22.9093 6.82043C23.1004 6.63422 23.1233 6.51395 23.2761 6.33938C23.3525 6.47516 23.406 6.60318 23.4671 6.77388L23.4633 6.77776ZM46.0267 17.3843C45.6217 17.5666 45.5567 17.7373 45.3352 17.5434C45.7439 17.4115 46.3743 16.9653 46.7525 16.6821C46.764 16.6744 46.7793 16.6588 46.7946 16.6511L48.6475 15.2933C49.614 14.5988 50.8213 13.4854 51.2606 12.3254C51.4669 11.7862 51.7802 10.6611 51.7382 10.0171L51.7114 9.58651C51.742 9.42745 51.7038 9.52832 51.7687 9.43521C52.04 9.88135 52.3189 10.2848 52.5099 10.8318C52.6131 11.1228 52.762 11.2974 52.678 11.6232C52.6551 11.7086 52.4335 12.3022 52.4068 12.3565C52.2005 12.7871 51.8375 13.2294 51.5128 13.5397L50.7143 14.3079C49.7745 15.3088 50.0878 14.8006 49.2817 15.4446C48.1508 16.3446 47.2836 16.8218 46.0305 17.3882L46.0267 17.3843ZM20.9227 9.47789C21.1558 9.19468 21.1519 8.89208 21.4729 8.67871C21.6333 8.7563 22.3095 9.58263 22.6343 9.88523L24.6744 11.4254C25.1825 11.7745 26.3248 12.6358 26.7832 12.822C26.6342 12.9539 27.001 13.0237 26.5234 12.8802C26.5043 12.8724 26.3744 12.7716 26.3553 12.7561C25.4461 12.0345 22.4203 10.7271 20.9227 9.47789ZM33.1939 20.0185C33.1939 20.0185 33.2321 19.8905 33.2436 19.8245C33.2932 19.5258 33.6753 18.9012 33.8586 18.6063C33.8701 18.5869 33.8968 18.5326 33.9083 18.5132C34.1337 18.1175 34.4852 17.2563 34.7144 16.9498C35.1576 16.3562 35.7574 15.4407 36.1776 14.9713C36.6361 14.4592 36.7392 13.9703 37.7058 13.1363C38 12.8841 38.1222 12.7134 38.382 12.4535C38.9207 11.9181 39.1194 11.8521 39.8261 11.1849C40.4183 10.6223 41.2397 10.2732 41.9541 9.90851C42.1451 9.81152 42.2177 9.74945 42.3935 9.69514C42.5577 9.64083 42.7717 9.61367 42.9168 9.58263C43.0429 9.55548 43.1232 9.5322 43.2072 9.5128C43.3486 9.47789 43.2569 9.45849 43.4632 9.45849C44.6207 9.47013 45.3887 9.67962 45.87 10.8008C46.0496 11.2159 46.0954 11.7125 46.0381 12.2595C45.9999 12.6436 45.8929 13.2798 45.7401 13.5281C45.5338 13.8695 45.3199 14.2458 45.0716 14.5096C44.7506 14.8471 44.5634 15.0566 44.2693 15.3514C43.9675 15.654 43.7421 15.8519 43.4211 16.1467C43.1384 16.4067 42.8519 16.686 42.3782 16.5929L42.4584 16.4881C42.4584 16.4881 42.4851 16.4571 42.5004 16.4455L43.2492 15.9644C43.8414 15.398 43.956 15.0372 44.3075 14.4359C44.6322 13.8772 44.7965 13.5979 44.636 12.8026C44.3495 11.3827 42.9818 11.7047 42.0267 12.0733L40.6666 12.7793C40.2578 13.0819 39.872 13.3574 39.5205 13.7027C39.1232 14.0984 38.596 14.4514 38.4317 14.6105C37.9465 15.076 38.1375 14.9713 37.9503 15.2001C37.7364 15.4601 37.8166 15.2157 37.4422 15.6967C37.1557 16.0653 36.7431 16.3679 36.4451 16.7752C36.0095 17.3727 35.425 17.9701 35.085 18.4938C34.7946 18.9439 34.7412 18.8934 34.5005 19.196C34.3897 19.3357 34.489 19.2077 34.382 19.3706C34.2712 19.5452 34.298 19.5025 34.1757 19.6654C33.5568 20.484 33.9847 19.9603 33.4422 20.5112L33.0755 20.9379C33.0105 21.0349 33.0525 20.9883 33.0029 21.0776C32.915 21.2289 32.8844 21.2444 32.7851 21.353C32.533 21.6285 31.5549 23.254 30.5693 23.1686C30.6304 23.0755 30.6151 23.0755 30.6992 22.9824C30.8558 22.8117 30.7374 22.9397 30.8023 22.9087C30.9475 22.8427 30.6342 23.0096 30.8749 22.8893L31.4289 22.4354C31.5549 22.2763 31.4938 22.4626 31.448 22.3423L31.3868 22.2569C31.3868 22.2569 31.3639 22.2375 31.3639 22.2259L31.8147 21.8186C32.1242 21.5858 31.9179 21.9543 32.2541 21.6246C32.4489 21.4345 33.0143 20.2551 33.0143 20.2551C33.0296 20.2086 33.0334 20.1038 33.0372 20.0534L33.1824 20.0301L33.1939 20.0185ZM24.8348 13.2332C25.1481 13.369 24.9036 13.1363 25.3315 13.3807C25.7594 13.6212 25.6715 13.4078 26.0765 13.6018C26.4661 13.788 26.2942 13.6367 26.9857 13.9703L27.9485 14.4436C28.3229 14.6454 28.8539 14.8355 28.9112 15.0139L27.1385 14.238C26.8329 14.1527 26.6992 13.9587 25.8893 13.7608C25.2016 13.594 23.6352 12.9423 22.726 12.6436C22.2981 12.5039 21.8473 12.3642 21.3697 12.2711C20.9647 12.1935 20.556 11.9491 20.0784 11.8405C19.9218 11.8056 19.6658 11.8677 19.7422 11.5689L19.9982 11.0801C20.1166 10.9521 19.9523 11.0801 20.1281 10.9676C20.4948 11.2353 21.9198 11.7784 22.5311 12.0578L23.6849 12.6164C23.8033 12.6746 23.8683 12.6785 23.9943 12.7328C24.4451 12.9229 24.6438 12.9345 24.9036 13.1052C24.9342 13.2565 24.8463 13.1944 24.831 13.2255L24.8348 13.2332ZM27.043 15.0644C27.1767 15.0993 27.1462 15.0217 27.1003 15.3825C26.6915 15.2195 26.703 15.3204 26.6266 15.0488C26.5693 15.0605 26.5578 15.1381 26.3744 15.1148L26.2522 15.0876C25.5531 14.9868 25.8396 14.9596 25.1328 14.9131C24.7278 14.8859 24.1624 14.785 23.6085 14.6919C22.959 14.5833 22.3821 14.5639 21.7021 14.5174C20.2389 14.4126 20.4681 14.207 18.7413 14.3428C18.917 13.8772 18.6534 13.5552 19.3678 13.563C20.6629 13.5746 21.2054 13.885 22.1644 13.916C22.3707 13.9238 23.3716 14.1022 23.6429 14.2341C23.6581 14.2419 23.6772 14.2497 23.6887 14.2574L24.0898 14.5988C24.0822 14.4165 23.9256 14.4048 23.8415 14.2303C24.2694 14.2807 24.0364 14.335 24.4566 14.3622C24.3229 14.5251 24.2503 14.4281 24.193 14.6066C24.3458 14.56 24.3458 14.5561 24.4642 14.4863C24.5827 14.4165 24.5636 14.2923 25.1519 14.5329L25.2589 14.5872C24.9609 14.657 25.1214 14.6221 24.8692 14.5639C24.4986 14.4747 24.6973 14.3777 24.6094 14.6337C24.896 14.8083 25.6333 14.7618 25.6639 14.7656C25.6715 14.7656 25.6906 14.7656 25.6982 14.7656C25.7059 14.7656 25.725 14.7734 25.7288 14.7734C25.7364 14.7734 25.7517 14.785 25.7594 14.7889L25.8129 14.8316C26.0994 15.01 25.6486 14.7424 26.1681 14.8471L27.0354 15.0605L27.043 15.0644ZM41.9656 15.9916C41.9694 15.7821 41.9503 15.173 41.9197 15.107C41.2473 15.2157 38.9474 17.9468 38.573 18.327L36.5329 20.6508C36.3572 20.9108 36.2311 21.0194 36.0401 21.2289L35.0048 22.416C34.0726 23.4673 32.7278 24.7165 31.6275 25.6127C30.5081 26.5244 28.0516 27.2111 28.2197 25.2597C28.2426 24.9842 29.0755 23.3704 29.404 23.1725C29.404 23.1725 29.9198 23.0212 29.9886 22.6216C30.0038 22.5246 29.9236 22.544 30.0344 22.4315C30.2445 22.2143 30.0612 22.4276 30.1796 22.3539C30.2713 22.2996 30.1758 22.416 30.2904 22.2492L30.5311 21.9272C30.6801 21.7642 30.6419 21.7875 30.8214 21.6401C31.0201 21.4733 31.9523 20.8021 32.1165 20.8991C32.0401 21.0776 32.1586 20.8991 32.0248 21.0116L31.3257 21.516C31.3257 21.516 31.299 21.5354 31.2913 21.5392L31.1652 21.6091C31.1652 21.6091 31.1385 21.6207 31.1309 21.6285C31.1232 21.6323 31.1041 21.644 31.0965 21.6517C31.0774 21.6634 31.001 21.7138 30.9781 21.7332L30.5425 22.1561C30.4623 22.2647 30.5196 22.2725 30.489 22.3539C30.3821 22.6488 29.7555 23.0406 29.5186 23.9406C29.3888 24.4372 29.5912 24.3092 29.5186 24.7864C30.2101 24.6583 30.0459 25.6127 31.7192 24.4566L32.5788 23.8165C33.2741 23.2385 33.5721 22.932 34.1261 22.2957L35.2034 21.0892C35.4594 20.7129 35.2493 20.9379 35.5969 20.6896L39.2951 16.6627C39.807 16.2204 41.9312 13.8889 42.9856 14.335C43.0964 14.9208 42.5883 15.3165 42.3896 15.6463C42.1833 15.9877 42.3476 15.8131 41.977 15.9993L41.9656 15.9916ZM53.6408 13.6212C53.763 13.819 53.8203 14.1837 53.9044 14.4398C54.019 14.7812 53.9846 14.9441 53.7592 15.2118C53.4574 15.5687 52.9531 15.8985 52.5596 16.1545C52.3418 16.298 52.1317 16.461 51.9101 16.5735L48.2272 18.2921L46.5577 18.746C46.2521 18.8275 46.0496 18.874 45.7172 18.9516L43.276 19.5025C43.0849 19.4909 43.1422 19.4909 43.0811 19.4365L44.5023 19.0952C45.0983 18.9283 44.4794 18.9943 45.5033 18.8236L46.3743 18.4938C46.7564 18.3619 46.6112 18.3348 46.8901 18.2805C47.7458 18.1136 46.7449 18.1136 48.0247 17.846C48.7506 17.6908 49.2626 17.0856 49.8089 16.9731C50.0534 16.9226 49.7783 17.1205 49.9884 16.942C50.1298 16.8257 49.9693 16.977 50.0496 16.7558C50.4354 16.88 49.9541 16.9149 50.3437 16.8838L50.2406 16.6744C51.104 16.7442 50.2635 16.6356 50.848 16.3756C51.0887 16.2709 50.8251 16.4455 51.0161 16.2903C51.2568 16.0963 51.2148 15.9838 51.7114 15.9372C51.6809 15.7782 51.5242 15.8907 51.7191 15.6657C51.8413 15.526 51.9559 15.5299 52.082 15.4523C52.3112 15.3049 52.4106 15.1148 52.6971 14.9169C53.0409 14.6803 52.6551 15.0333 53.1326 14.3428C53.2129 14.2264 53.274 14.0984 53.3389 13.9859C53.4688 13.7531 53.4077 13.7221 53.6369 13.6251L53.6408 13.6212ZM27.3219 15.429C27.1041 15.3243 27.2073 15.3553 27.1538 15.3165L27.5817 15.2661C27.7765 15.3088 27.681 15.173 27.979 15.3514C28.5253 15.6812 27.9943 15.2079 28.7851 15.6114L29.2856 15.8286C28.8119 15.8364 28.3993 15.623 27.8491 15.5299C27.7383 15.5105 27.7039 15.5221 27.5932 15.5066C27.5015 15.495 27.3869 15.4601 27.3257 15.429H27.3219ZM18.0956 17.1515C18.2714 16.3562 18.1949 16.3136 18.6878 16.2088C19.2608 16.0847 22.7642 15.8441 23.4098 16.0459C23.6543 16.1235 23.6505 16.1041 23.8874 16.0265C24.3496 16.1429 23.8568 15.9954 24.0898 16.1467L24.6438 16.2554C24.2579 15.9916 24.4986 16.1041 24.5292 16.042C24.831 16.0808 25.6142 16.1235 25.7899 16.364C25.4193 16.5696 22.917 16.3911 22.5388 16.3873C21.4958 16.3756 20.0937 16.5502 19.0966 16.8373L18.0994 17.1476L18.0956 17.1515ZM40.7774 17.5317C40.9532 17.3765 41.2626 17.3261 41.5033 17.136C41.6408 17.0274 41.7058 16.9886 41.8318 16.8955C42.3018 16.5463 42.1604 16.8024 42.2024 16.8257C42.0687 17.0468 41.3658 17.4502 41.1747 17.5278C40.7048 17.7218 40.808 17.5589 40.7736 17.5278L40.7774 17.5317ZM44.4412 20.2163C44.5252 20.1775 45.5835 19.9913 45.7478 19.9913C46.7564 19.9991 48.827 19.5491 49.9235 19.3706L51.1919 19.0176C51.6885 18.8701 51.9407 18.8197 52.4029 18.6025C53.0791 18.2843 54.0495 17.3222 54.3628 17.2408C54.3819 17.5589 54.3666 17.3998 54.4812 17.6714C53.9273 18.6257 53.167 18.6917 51.9598 19.1689L50.0419 19.6616C48.0706 19.9797 46.5424 20.259 44.4374 20.2163H44.4412ZM26.4241 17.5472C26.7641 17.5472 27.0965 17.6132 27.2608 17.5201C27.3181 17.8072 27.2531 17.586 27.3487 17.8072C27.1462 17.7373 26.7985 17.8848 26.1758 17.9507L23.5741 18.2999C22.6763 18.455 20.8769 18.8973 20.0173 19.1921C19.6238 19.324 18.8368 19.6732 18.5197 19.9021C18.2446 20.1038 18.3134 20.1775 18.0536 20.162C18.065 18.9826 18.2255 19.2853 19.108 18.843C20.0249 18.3774 20.9915 18.3154 21.9198 18.0516C22.1376 17.9895 22.6304 17.9934 22.6992 17.9623C23.0048 17.8266 22.3516 17.8848 23.0774 17.8537C23.2914 17.846 23.15 17.877 23.3449 17.8343C23.4748 17.8072 23.4251 17.7684 23.6008 17.7528C23.8644 17.7296 23.6887 17.7955 24.0478 17.8382C24.3917 17.8809 24.2312 17.6869 24.4108 17.9546L24.4795 17.8576C24.7393 17.5628 25.0908 17.6365 25.4232 17.78C25.4919 17.6326 25.4232 17.9662 25.4232 17.7179C25.4232 17.5744 25.3811 17.7141 25.427 17.6054C25.7173 17.6908 25.4728 17.6947 25.7212 17.6947H25.7403L26.4318 17.7684C26.5273 17.6597 26.4394 17.7684 26.4318 17.6636L26.4203 17.5472H26.4241ZM27.7727 17.6714C27.8606 17.4774 27.7422 17.4658 28.128 17.5007L28.3802 17.6365C28.2923 17.7567 28.3496 17.7684 27.9141 17.7567C27.6772 17.7528 27.6657 17.78 27.5015 17.6791C27.5435 17.4309 27.3219 17.5201 27.6123 17.5162L27.7727 17.6675V17.6714ZM18.4662 23.5217L18.3898 23.1415C18.3745 23.0096 18.3516 22.7923 18.363 22.707C18.4242 22.2841 18.9514 21.8845 19.2188 21.6285C19.3984 21.4539 19.5856 21.2871 19.7728 21.1823C19.9256 21.097 19.8874 21.1474 20.0555 21.0349C20.5063 20.7362 20.109 20.9263 20.6285 20.7245C20.8731 20.6276 20.7393 20.5538 21.2054 20.4452C21.6295 20.3482 21.8664 20.2086 22.1185 20.1232C22.3974 20.0262 22.6381 20.0262 22.8864 19.9564L24.4184 19.5723C24.6056 19.5025 24.4528 19.5568 24.5521 19.5025L26.6724 19.0796C27.0048 19.0292 28.0707 18.6645 28.3534 18.9245C27.7574 19.0719 28.086 18.9128 26.8558 19.2736C26.3935 19.4094 25.9427 19.5258 25.4384 19.7004L23.3831 20.3987C23.2493 20.4452 23.1997 20.4491 23.066 20.4918L22.5617 20.7051C21.8931 20.9573 22.2369 20.9146 21.8778 21.0233L21.6448 21.1047C21.6448 21.1047 21.6142 21.1164 21.6066 21.1203C21.1863 21.3142 19.5397 22.2725 19.3105 22.5091L18.4738 23.5139L18.4662 23.5217ZM27.4671 31.5328C27.2149 31.4901 27.085 31.7578 26.3897 31.1061C26.1185 30.8539 25.8205 30.5668 25.5569 30.2953C24.7966 29.5194 24.7661 28.4292 24.7775 27.3042C24.7813 26.7688 25.832 25.0153 25.9886 24.8562L27.2684 23.4247C27.49 23.1647 27.6734 23.0134 27.9561 22.932C28.319 22.8272 27.8262 22.5983 28.3458 22.7846L28.2426 22.5673C28.6705 22.4082 28.6591 22.2259 29.1213 21.8535C29.3047 21.7061 29.4843 21.6711 29.5951 21.5276C29.6791 21.419 29.5607 21.3957 29.6982 21.4461C29.958 21.5431 29.6447 21.3569 29.8128 21.5276C29.5301 22.0668 29.3276 21.7759 29.0258 22.1949L28.6247 22.6488C28.3916 22.8738 28.3229 23.0678 28.1127 23.285C27.895 23.51 27.7613 23.5837 27.5435 23.8592L26.6648 25.2791C26.363 25.8998 26.1223 26.6951 26.1147 27.3934C26.107 28.0568 26.8711 29.2711 27.257 29.5969C27.9676 30.1983 29.3467 30.1866 30.4661 29.6551L30.7565 29.5155C30.9055 29.4495 30.9284 29.4495 31.0506 29.3875C32.2311 28.759 33.8701 27.4399 34.8672 26.5011L35.2951 26.0744C35.6695 25.7058 36.7851 24.0919 37.0869 23.6458L37.2435 23.4363C37.339 23.3005 37.3352 23.3044 37.4269 23.188L38.7411 21.0659C38.8749 20.7323 38.8405 20.7633 39.0315 20.4801C39.2645 20.131 39.4403 19.6422 39.6542 19.39L39.1652 22.16L37.0487 26.5089C36.808 26.8464 36.6093 27.1373 36.3687 27.4787L35.7841 28.2508C35.7841 28.2508 35.7612 28.2779 35.7497 28.2896C35.6695 28.3865 35.7268 28.3128 35.6542 28.4098L34.9245 29.2555C34.787 29.3952 34.638 29.4883 34.5158 29.6357L33.2665 30.8073C32.6437 31.2845 31.3716 31.9945 30.596 32.1225C29.874 32.2428 29.32 32.332 28.533 32.1186C28.3267 32.0643 28.1204 31.9945 27.9255 31.9246C27.5282 31.7811 27.6543 31.8975 27.4595 31.5406L27.4671 31.5328ZM19.7957 27.6688C19.5932 27.4516 19.7155 27.3585 19.4786 26.8697C19.066 26.0278 19.1921 25.3567 19.6352 24.6118L19.769 24.3713C19.9371 24.0842 19.8606 24.057 20.1013 24.2355C20.1586 23.7156 20.1472 23.7932 20.556 23.8126C20.5445 23.7971 20.5292 23.7583 20.5254 23.7699C20.5254 23.7816 20.5025 23.735 20.5025 23.7311C20.5025 23.7273 20.4872 23.7001 20.4872 23.6962C20.4643 23.4906 20.5483 23.6536 20.6362 23.576C20.8081 23.4247 20.4375 23.6807 20.6897 23.51C20.8463 23.4053 20.98 23.5488 21.129 23.1958C21.3124 22.7652 22.4127 22.0048 22.9132 22.0048C23.1309 22.0048 22.9857 22.0358 23.1882 21.9737L23.1806 21.7332C23.4709 21.644 23.4327 22.0979 23.6046 21.6789L23.3181 21.5819L24.0555 21.3491C24.2388 21.2948 24.1395 21.3491 24.3305 21.256C24.3955 21.4229 24.2274 21.419 24.4719 21.4655C24.5139 21.3375 24.4833 21.3103 24.5521 21.1125C24.9265 21.0659 24.8577 20.9224 25.1137 21.1164C25.1672 21.0349 25.2436 21.2172 25.0679 20.9379C25.0602 20.9263 25.0373 20.903 25.0258 20.8836C25.511 20.9146 25.0488 20.8681 25.4728 20.775C25.5072 20.8836 25.4805 20.8603 25.576 21.0116L25.8893 20.8138C26.2102 20.5306 26.1567 20.2939 26.5807 20.5849C26.7336 20.1892 26.447 20.4297 26.703 20.3017C26.7985 20.2551 26.8635 20.2474 26.9666 20.1969C26.9743 20.2086 26.9743 20.2163 26.9743 20.2357C26.9934 20.4336 27.0583 20.3909 27.108 20.4064C27.2226 20.1737 27.0965 20.0844 27.3983 20.065C27.8988 20.034 27.1844 20.2435 27.9294 20.1659C27.872 20.034 28.0019 20.1969 27.8491 20.0961L27.6543 19.9797C27.9714 19.9836 27.9867 19.9603 28.1815 19.809L28.4489 19.9991C28.5368 19.7779 28.3267 20.1116 28.4871 19.8012C28.8081 19.7508 28.8119 19.6926 29.0029 19.6266C29.0296 19.6189 29.1939 19.5879 29.2245 19.5917L29.511 19.6887L27.9255 20.3133C27.6963 20.4025 27.383 20.5034 27.15 20.5888C26.5158 20.8215 25.1596 21.5237 24.5559 21.8418C23.3372 22.4858 22.0077 23.4984 21.129 24.5536C21.0221 24.6816 20.9762 24.7321 20.9036 24.8252C19.9944 26.0162 20.1434 26.4856 19.7957 27.665V27.6688ZM29.9351 21.5509C29.9351 21.5509 29.9274 21.5004 29.9274 21.5121L29.9351 21.2832C29.9351 21.2832 29.9313 21.256 29.9274 21.256L29.9618 21.194C29.9618 21.194 29.9924 21.1668 30 21.1629L30.3018 20.9728C30.9016 20.6702 31.3219 20.1387 31.5549 20.3288C31.3868 20.4801 31.3257 20.4375 31.1309 20.5965C30.8138 20.8564 30.405 21.0931 30.1376 21.3841C30.0344 21.4966 30.0535 21.4733 29.9313 21.5586L29.9351 21.5509ZM28.4107 21.3065C28.1624 21.2405 28.2388 21.2793 28.0898 21.159C27.895 21.3647 27.9599 21.2599 27.6466 21.3569C27.7422 21.159 27.5893 21.3491 27.7536 21.2289L28.1051 21.0271C28.4031 20.9883 28.2426 21.0504 28.2923 21.0776L28.7355 20.6741C28.9112 20.7827 28.8004 20.775 29.0105 20.8409C28.9418 20.7168 28.9571 20.7711 28.9762 20.6043C29.2398 20.4724 29.2245 20.4413 29.5645 20.3987C29.4537 20.6547 29.6371 20.4995 29.3888 20.6237L28.4146 21.3065H28.4107ZM50.2253 21.7681C49.4307 21.7604 46.4316 21.6828 45.7325 21.5004C45.4078 21.4151 44.8347 21.3685 44.5749 21.2716C45.1824 21.2793 45.3695 21.3569 45.7554 21.3065L46.0419 21.2948C46.5348 21.3065 48.3075 21.3724 48.8652 21.2522C49.3772 21.1396 50.3017 21.1862 50.871 21.097L52.3533 20.8526C53.0142 20.7401 53.0677 20.4801 53.316 20.7323C53.4192 20.5189 53.2893 20.6314 53.4803 20.5267C53.5682 20.4801 53.5376 20.5073 53.6408 20.4724L54.1603 20.2086C54.3131 20.1232 54.3361 20.0999 54.5156 20.034C54.5271 20.5267 54.5806 20.7129 54.2902 20.9922C54.103 21.1746 53.5605 21.3026 53.2854 21.3569C53.0753 21.3996 52.869 21.4306 52.7047 21.4694C52.0858 21.6129 50.8251 21.7759 50.2253 21.7681ZM22.8558 32.1264C22.8558 32.1264 22.7603 31.9518 22.6916 31.8664C22.2675 31.3272 22.0994 31.3272 21.618 30.5086C21.5607 30.4078 21.576 30.4466 21.5263 30.3147C21.2666 29.6047 21.2627 28.7745 21.3277 28.0451C21.4308 26.9085 22.7069 25.1898 23.4518 24.4178C23.5741 24.2937 23.8759 23.9717 24.0364 23.9212C24.1701 23.8747 24.3726 23.5721 24.4642 23.4285L24.4872 23.6691L24.8616 23.2966C24.8616 23.2966 24.6744 23.3626 24.9533 23.0716L25.3353 22.8272C25.2092 23.1066 25.2398 22.9514 25.0908 23.1841C25.3811 23.0639 25.2321 22.9979 25.5836 22.9087C25.5531 22.6953 25.5645 22.8544 25.4614 22.7108C25.4614 22.7108 25.4499 22.6992 25.4499 22.6914C25.725 22.5518 25.4919 22.5479 25.8167 22.5091C25.8358 22.5091 25.8854 22.5091 25.9007 22.5091C25.9618 22.5091 26.0574 22.5828 26.2293 22.4199C26.1643 22.2104 26.2446 22.3966 26.1643 22.3462L26.0077 22.2725C26.554 22.0746 26.172 22.0358 26.9093 21.7526C26.7336 22.2104 26.6533 21.9078 26.4776 22.2453C26.745 22.1328 27.0468 21.9311 27.2914 21.772C27.7116 21.4966 27.704 21.4384 28.2006 21.2909C28.0058 21.5858 25.916 22.7574 25.064 23.6148C24.9762 23.704 24.9036 23.7893 24.8157 23.8631C24.4184 24.1928 24.7164 23.832 23.9332 24.6157C23.6925 24.8562 23.1729 25.6321 23.0545 25.9657C22.9666 26.2179 22.8597 26.4972 22.7642 26.7649C22.5464 27.374 22.3248 27.7309 22.3172 28.5766C22.3095 29.7987 22.2675 30.3728 22.7336 31.4009C23.0851 32.1807 23.1195 32.0178 22.852 32.1264H22.8558ZM45.0066 22.6139L49.786 23.3122L52.0591 23.3471C52.4793 23.3122 52.8881 23.2928 53.2778 23.2268C53.465 23.1958 53.7248 23.1919 53.8432 23.1609C53.8623 23.157 53.9044 23.1376 53.9196 23.1298C54.0954 23.0561 53.8776 23.1376 54.019 23.0794C54.2023 22.9979 54.0075 23.0522 54.2405 23.0057C54.2329 23.7699 54.1565 23.9406 53.8203 23.9911C52.2501 24.22 48.9455 23.4402 47.467 23.2035C47.0353 23.1337 46.573 23.1066 46.1375 23.0018C45.977 22.963 45.744 22.8854 45.5911 22.8466C44.9455 22.6759 45.274 22.835 45.0028 22.6177L45.0066 22.6139ZM44.8958 23.638C45.0792 23.704 45.1785 23.7273 45.3657 23.801L46.4011 24.1191C46.6417 24.1967 46.7525 24.1851 46.9894 24.2432C48.0286 24.5032 48.9913 24.9803 50.1986 25.1161C50.6494 25.1666 50.8518 25.314 51.2645 25.411C51.4364 25.4536 51.6389 25.508 51.7764 25.539C52.0209 25.5972 52.1622 25.5584 52.4068 25.6243C52.8728 25.7524 53.0677 25.8765 53.5911 25.733C53.5338 26.0201 53.4345 26.2101 53.3542 26.5011C52.6818 26.5477 50.6455 25.8804 49.9197 25.6011L46.8328 24.4683C46.4622 24.317 46.21 24.2238 45.87 24.0803L45.3352 23.8824C45.1556 23.8281 44.9913 23.7777 44.8996 23.6419L44.8958 23.638ZM45.1212 24.6351C45.4307 24.6739 45.2282 24.6583 45.3657 24.7127L47.3523 25.6554C47.5166 25.7213 47.658 25.8028 47.8414 25.8959C47.9942 25.9735 48.0859 26.0239 48.2578 26.1093C48.3342 26.1481 48.3877 26.1714 48.4908 26.2334L48.7774 26.4158C49.2473 26.5399 48.6857 26.2489 49.6064 26.7494L49.679 26.7804C49.679 26.7804 49.7095 26.7882 49.7172 26.7921C50.2253 26.9744 49.8853 26.9279 50.3361 27.1179L51.5013 27.599C52.0935 27.9986 51.8681 28.0258 51.9827 27.7581C52.0553 28.1848 51.9636 27.8822 52.2578 28.0413C52.273 28.049 52.2921 28.0568 52.3074 28.0684L52.5252 28.2197C52.5252 28.2197 52.5558 28.243 52.5672 28.2508C52.5787 28.2585 52.6016 28.274 52.6131 28.2818C52.6245 28.2896 52.6436 28.3012 52.6589 28.3128C52.5481 28.5107 52.4526 28.6814 52.3418 28.8715C52.0018 29.4612 52.2807 29.2555 51.998 29.3642C51.9025 29.2129 51.9559 29.2866 52.0094 28.9995L51.7955 29.2245C51.7573 29.143 51.6962 29.0111 51.6465 28.9413L51.2568 28.6193C51.0314 28.5301 51.1307 28.5728 50.9512 28.6348C50.7602 28.1848 51.2148 28.5999 50.4889 28.1577L49.8853 27.727C49.8853 27.727 49.8547 27.7154 49.8433 27.7115C49.8318 27.7076 49.8127 27.6999 49.8012 27.6921C49.381 27.5059 48.8003 26.9899 48.4373 26.7921L45.912 25.1627C45.7516 25.0657 45.6752 25.023 45.5147 24.9183C45.4116 24.8523 45.2244 24.6894 45.125 24.6273L45.1212 24.6351ZM41.7784 24.7864L42.4546 26.4002C43.2263 28.5378 43.551 29.4379 43.7077 32.0876C43.7841 33.3717 43.5128 34.5705 42.8099 35.6567C42.5577 36.0447 42.4164 36.5878 41.7936 36.9292C41.2893 37.2085 40.6093 37.4723 40.0936 37.6236C40.2349 37.2434 40.7048 36.8012 40.9608 36.4287C41.1289 36.1843 41.1633 36.0641 41.3505 35.8158C41.5988 35.4899 42.0649 34.0467 42.191 33.6394C42.6609 32.1264 42.6838 29.7133 42.3285 28.1538C42.2674 27.8783 42.2445 27.5718 42.2215 27.2654C42.1833 26.8231 42.1031 26.8037 42.0381 26.4701C41.9388 25.9735 42.0152 25.7019 41.786 25.2054C41.6561 24.9183 41.6561 24.9377 41.7822 24.7903L41.7784 24.7864ZM43.2913 25.0929C43.5701 25.1704 44.636 26.2218 44.8538 26.5089C45.3848 27.2072 46.0954 27.7969 46.6303 28.5184L47.1155 29.1741C47.998 30.2797 50.0457 32.1303 48.7124 33.4726L48.2081 33.9653L48.2234 33.5424C48.3648 33.5928 48.3113 33.6161 48.3839 33.5812L48.5405 33.3795C48.678 33.2126 48.7468 33.2165 48.827 33.007C48.6971 33.0652 48.7774 33.0381 48.6628 33.1234L48.1508 33.4415C48.1584 32.8402 48.0782 32.4445 47.9331 31.9906C47.8032 31.5832 47.3562 30.8345 47.1269 30.369L45.6561 28.1305C45.6561 28.1305 45.5682 28.0102 45.5644 28.0064C45.5567 27.9947 45.5415 27.9792 45.53 27.9676C45.5185 27.952 45.4765 27.9055 45.4612 27.89L44.7774 26.9279C44.6437 26.7766 44.552 26.7067 44.3992 26.5166L43.658 25.6127C43.4976 25.4149 43.3829 25.2985 43.2874 25.089L43.2913 25.0929ZM44.9417 25.6399L46.7143 26.8697C47.0009 27.0675 47.2912 27.2731 47.5969 27.4826C47.9483 27.7231 48.2043 27.8938 48.529 28.1227L49.0868 28.5689C49.2855 28.7473 48.976 28.5883 49.2893 28.7318C49.3581 28.7629 49.4421 28.7745 49.5262 28.8327C49.7592 28.9995 49.4803 28.8288 49.6943 29.0499L50.061 29.306C50.3552 29.4689 51.0696 30.0935 50.9817 30.5086C50.9015 30.8733 51.0199 30.4931 50.8404 30.7298C50.7563 30.8423 50.7296 30.8306 50.7105 30.9974C50.9283 30.7996 50.7716 30.8035 51.0505 30.7336C51.0276 31.075 50.6379 31.4979 50.3667 31.6531L50.168 31.1332C50.126 31.0168 50.126 30.9742 50.0801 30.8617C49.9732 30.6173 50.0916 30.8267 49.9349 30.6444C49.8509 30.5474 49.8165 30.5241 49.7668 30.4621L49.3466 29.9539C49.3466 29.9539 49.3199 29.9306 49.3084 29.9189L48.9913 29.5969C48.6131 29.1198 48.7659 29.3913 48.552 29.1663L48.04 28.6193C48.04 28.6193 48.0133 28.596 48.0018 28.5844C47.9904 28.5728 47.9751 28.5572 47.9636 28.5495L46.4049 27.0326C46.0228 26.633 45.1938 26.0317 44.9417 25.6437V25.6399ZM33.8204 37.3133C31.4938 37.29 31.0545 37.0689 29.0373 36.3783C28.8997 36.3317 27.1653 35.5791 26.9781 35.4007L28.4795 35.8662C30.107 36.3899 30.5387 36.1455 30.8443 36.1766C31.1652 36.2115 31.0927 36.4598 32.3152 35.9904L32.533 35.9205C33.0029 35.7731 33.2512 35.5558 33.5683 35.4938C33.7058 35.4666 33.6256 35.5171 33.6944 35.4666L33.7211 35.4239C33.9045 35.1795 34.2063 35.0632 34.3095 35.005L35.5052 34.0584C36.4451 33.232 37.4498 31.8975 37.9083 30.7298C38.0267 30.4233 38.2063 30.1672 38.34 29.8724L39.0353 28.0413C39.0888 27.8589 39.0926 27.7154 39.1499 27.502L39.1805 27.4012C39.1805 27.4012 39.1881 27.3701 39.1919 27.3546L39.2378 27.0675C39.3142 26.6563 39.5931 26.3925 39.5969 26.1597C39.6045 25.2829 39.6275 25.8765 39.7153 25.3489C39.8452 24.5769 39.9446 24.3596 40.0668 23.4402C40.1241 23.0096 40.0706 22.7147 40.3037 22.4703C40.3228 22.8738 40.3954 23.3354 40.4947 23.704C40.5826 24.026 40.659 24.5614 40.7201 24.9183L40.6972 28.5029L40.4107 30.3379C40.3381 30.5319 40.2578 30.6405 40.2005 30.8345C39.6962 32.5376 38.9054 34.3028 37.6905 35.5209C37.2817 35.9322 36.6437 36.5335 36.0745 36.7585C35.5167 36.9796 34.447 37.321 33.8166 37.3133H33.8204ZM43.5892 26.5632C43.8758 26.699 44.2578 27.4555 44.403 27.6688C44.6742 28.0645 44.8156 28.1615 45.1365 28.7861C45.1441 28.8016 45.1518 28.821 45.1594 28.8327L45.3466 29.2206C45.3466 29.2206 45.3581 29.2555 45.3619 29.2672C45.572 29.8608 45.4192 29.1857 45.7783 30.0121C45.8968 30.2914 46.0114 30.3457 46.21 30.8617C46.5768 31.7966 47.0505 33.5308 46.7067 34.4696C46.4316 35.2222 46.871 34.6636 46.359 35.1951C46.1145 35.4472 45.8433 35.7809 45.3925 35.8313C45.5835 35.2726 45.9006 35.6102 46.0801 35.2067C46.1298 35.0942 46.1069 35.1524 46.1184 35.0321C45.9655 35.1757 45.7898 35.3192 45.5529 35.3774C45.5529 35.2261 45.7478 34.3881 45.7592 33.0691C45.7592 32.8984 45.6866 32.8596 45.6599 32.6928C45.5262 31.8587 45.5797 31.5289 45.19 30.4504L44.6284 28.8016C44.5252 28.565 44.3686 28.3012 44.2769 28.0839L43.5854 26.5709L43.5892 26.5632Z" fill="white"/>
<path fill-rule="evenodd" clip-rule="evenodd" d="M74.5118 13.6875C74.6857 14.1676 73.9167 15.7945 73.8201 16.3774C73.7891 16.5489 73.8085 16.6594 73.7698 16.827C73.6887 17.1966 73.5998 17.0747 73.5225 17.5585C73.4722 17.8748 73.4722 18.1262 73.4722 18.4882C73.4722 18.9606 73.3872 19.0788 73.3447 19.4102C73.2056 20.5113 73.3756 20.4923 73.3215 21.38C73.2945 21.8068 73.3563 22.0773 73.3563 22.4507L73.6539 24.4395C73.7698 24.7519 73.7273 24.4395 73.7891 24.9158L74.1833 26.2988C74.3572 26.7484 74.3997 27.2513 74.5736 27.6819C74.8287 28.3182 75.5088 29.5298 75.7639 30.1051C75.7948 30.1775 75.7987 30.2041 75.845 30.307L76.9425 32.1206C77.186 32.5473 77.5415 32.9055 77.8352 33.2789C78.0362 33.5341 78.1676 33.6637 78.3569 33.8999C78.4226 33.9799 78.4497 34.0294 78.5077 34.1056L78.6429 34.2542C78.7588 34.3609 78.8245 34.4028 78.9443 34.5248L80.7916 36.2431C81.5335 36.9784 82.774 37.6414 83.6938 38.1253C84.2309 38.4072 84.7565 38.7654 85.2937 38.9635L86.2482 39.2416C86.5651 39.3292 86.8163 39.3978 87.1293 39.5045C87.7901 39.7255 89.3977 40.0417 90.1513 40.0532C90.5339 40.057 90.9242 40.0379 91.3029 40.0836C92.1531 40.1827 92.8603 40.1103 93.6719 40.0836C93.981 40.076 94.5104 40.0112 94.8003 39.9579L95.7046 39.8246C96.0446 39.7865 97.3006 39.5083 97.6329 39.3864C99.4067 38.7387 99.0667 39.0244 101.111 38.0948L102.614 37.2489C102.943 37.0623 103.047 36.9441 103.314 36.7384C103.557 36.5517 103.789 36.4565 104.002 36.2888C104.697 35.7364 105.215 35.1077 105.841 34.5629C106.085 34.3533 106.193 34.2009 106.452 33.9609C106.881 33.5646 107.395 32.7531 107.769 32.2882L108.457 31.2633C108.913 30.547 109.385 29.7774 109.756 28.9964C109.883 28.7258 110.003 28.4668 110.138 28.1734C110.393 27.6285 110.637 27.0837 110.834 26.5084L111.591 23.125C111.773 22.1154 111.611 22.0163 111.618 21.4829L111.599 19.1588C111.588 18.9759 111.553 18.9264 111.522 18.6597C111.224 16.206 110.907 15.8821 110.088 13.6189C110.019 13.4246 109.872 13.0931 109.775 12.8684C109.42 12.0378 109.176 11.691 108.886 11.0662C108.712 10.6928 108.461 10.4642 108.233 10.0908C107.82 9.41644 107.271 8.86779 106.807 8.24675C106.27 7.53046 105.772 6.79511 104.987 6.29219C104.829 6.18931 104.817 6.17407 104.659 6.05215C104.38 5.83117 104.311 5.73592 104.106 5.53779C103.785 5.23299 103.252 4.90913 102.881 4.631C102.672 4.47479 102.409 4.34143 102.178 4.1776C102.008 4.05568 101.702 3.90709 101.497 3.78516C100.098 2.94314 97.2542 2.1316 95.6505 1.91442C93.954 1.68201 92.5318 1.73154 90.8353 1.81155C89.3977 1.88013 88.0143 2.14684 86.6578 2.56594C86.5458 2.60023 86.3757 2.64215 86.2714 2.67263C86.0704 2.72978 85.9816 2.7755 85.8347 2.81741C83.9913 3.35844 84.857 2.95838 83.0832 3.83088C82.5692 4.08235 81.5645 4.84817 81.1896 5.21394C80.494 5.89213 79.4004 6.57413 78.3801 7.82002L77.9087 8.42201C77.5956 8.78778 77.2015 9.19545 76.9232 9.64504L75.6982 11.7025C75.5745 11.9273 75.474 12.1673 75.3388 12.4111C74.9601 13.0779 75.1262 13.2417 74.5079 13.6951M91.7435 2.68787C91.929 2.75645 91.9522 2.72216 92.0604 2.70311C92.0836 2.56975 92.0024 2.46307 92.0604 2.39449C92.3657 2.35258 92.8487 2.39449 93.1308 2.42116C93.0651 2.60785 93.0419 2.55451 93.0535 2.60404C93.1154 2.60023 93.2584 2.64595 93.3666 2.37544L93.4245 2.6993C93.069 2.95457 93.44 2.58499 92.7637 3.04601C92.5666 3.17936 92.3463 3.27081 92.1261 3.40797C90.8817 4.1776 91.473 3.97567 91.0054 4.34905C90.5803 4.68815 90.4218 4.74911 90.1243 5.40444C89.9233 5.8426 89.9851 5.49969 89.7108 5.98357L88.7717 7.96861C88.3041 9.33262 88.0877 10.6699 87.9486 12.1178C87.8326 13.3637 87.736 13.2341 87.879 14.7886C87.9022 15.0477 87.9022 15.6002 87.9563 15.8897C87.9911 16.0726 88.0375 16.1983 88.0684 16.4003C88.0993 16.6098 88.08 16.7813 88.107 16.9947C88.1457 17.288 88.2732 17.6081 88.3311 18.0348C87.9795 17.7948 87.5814 16.3431 87.4539 15.8935C87.2182 15.0553 87.0636 14.3886 86.8665 13.5008L86.5071 10.9062C86.4917 10.7233 86.5342 10.3423 86.5264 10.2127C86.4298 9.0621 86.5226 8.24294 86.8858 7.14564C87.2723 5.98738 87.6858 5.10726 88.3891 4.15093C88.7833 3.61371 89.1504 3.27843 89.7069 2.97362C90.0586 2.77931 90.0508 2.95076 90.4218 2.82122C90.673 2.73359 90.8199 2.51641 91.3377 2.46688C91.9406 2.40973 91.8749 2.46688 91.9444 2.61547L91.7899 2.60023C91.7899 2.60023 91.7551 2.60023 91.7473 2.60023L91.7551 2.69168L91.7435 2.68787ZM86.0588 14.6515C85.9352 14.5486 86.0241 14.6515 85.9159 14.4876L85.112 13.0284C84.656 12.3083 84.5594 11.8092 84.3082 11.2872C83.9295 10.4947 83.2919 8.25818 83.2957 7.41615C83.2957 6.6008 83.5083 5.52255 83.7865 4.89389C83.9218 4.5929 84.5903 4.31476 84.9111 4.19665C85.1584 4.10521 85.2203 4.00615 85.4985 3.88804C85.4753 4.32619 85.4251 4.10521 85.2164 4.47479C84.7913 5.22918 84.544 7.17231 84.544 8.06005C84.544 9.08115 84.4589 8.46011 84.6251 9.42406L85.2357 12.1444C85.4289 12.7693 86.0086 14.3086 86.055 14.6515H86.0588ZM91.3764 9.29833C91.0865 9.08115 91.5618 8.85255 91.6275 8.6811C91.6275 8.67729 91.5193 8.7192 91.6739 8.51726C91.9367 8.17055 91.7899 8.60489 92.0024 8.20484C92.1145 7.99147 92.1918 7.92289 92.3425 7.76287C93.3125 6.74558 93.8342 6.26552 95.0012 5.5797C96.4852 4.7072 98.1546 4.46717 99.8859 4.84055L100.713 5.05773C101.64 5.33205 101.15 5.13012 102.058 5.6178C102.568 5.89213 102.715 6.14359 103.047 6.02167L103.008 6.31124C103.171 6.25027 103.256 6.23122 103.406 6.34553L103.607 6.49793C103.862 6.66557 103.998 6.78368 104.148 7.01991C104.28 7.22565 104.121 7.05801 104.38 7.21422L105.683 8.84112C105.814 9.05829 105.663 8.8335 105.814 9.00495C106.057 9.27928 106.119 9.69838 106.185 10.026C106.32 10.6966 106.413 10.2508 106.401 11.3824C106.394 12.0721 106.228 12.2054 106.162 12.5712C106 13.5046 105.447 13.8971 105.091 14.5829L103.859 15.9926L102.139 17.2614C101.447 17.749 100.601 17.9853 99.9091 18.4463C99.8975 18.4539 99.8782 18.4653 99.8666 18.4768C99.6425 18.6216 99.4106 18.7625 99.0705 18.8006C99.6734 18.2939 100.458 17.8824 101.103 17.4328L102.842 15.9697C104.129 14.6286 104.856 13.1808 104.585 11.2376L104.338 10.1213C104.307 10.0337 104.148 9.85841 104.063 9.69457C103.059 7.78192 100.999 6.88656 98.9044 7.37424C98.3208 7.5076 97.7798 7.57999 97.2156 7.8124C96.5161 8.10197 95.9442 8.41058 95.3606 8.87541C94.4911 9.56884 93.8148 10.228 93.0651 10.9938C92.0333 12.0454 91.9406 12.5674 91.33 13.6151L89.703 17.109C89.6296 17.3033 89.56 17.4633 89.4982 17.6309C89.3398 18.0424 89.3359 18.252 89.22 18.6863L88.9301 19.8293C88.7446 19.7608 88.7949 19.7722 88.6519 19.6769C88.9417 19.5017 88.7833 19.1473 88.7794 18.793C88.7717 18.2786 89.0306 15.5926 89.1659 15.143L89.2277 14.9067C89.2393 14.7391 89.1388 14.9067 89.2741 14.5334C89.4789 13.9657 89.2393 14.2743 89.3011 13.859C89.3514 13.5351 89.4828 13.4246 89.506 13.0665L89.6953 13.3713L89.8035 12.274C89.9272 12.1521 89.8035 12.2397 89.9658 12.2016C89.9774 12.2016 90.0315 12.213 90.0547 12.2054C89.989 12.0111 89.9426 12.1368 89.8731 11.9196C89.9349 11.8206 89.9735 11.7215 90.0547 11.6034C90.2866 11.2453 90.418 10.5899 90.6266 10.1785C90.7464 9.94604 90.8005 9.96128 91.0363 9.88127C91.0208 9.87365 90.9976 9.86603 90.9938 9.85841C90.8276 9.7441 90.8933 9.69076 91.0054 9.49264C91.1715 9.20688 91.0595 9.27928 91.3725 9.2869L91.3764 9.29833ZM84.5285 13.6304C84.2039 13.497 83.9913 13.0474 83.7286 12.7464C83.4928 12.4759 83.1102 12.114 82.9248 11.8396C82.7856 11.6339 82.7779 11.5234 82.6079 11.31L81.8504 10.3613C81.3906 9.70219 80.5288 8.34581 80.5133 7.59523C80.5133 7.43901 80.5326 6.9018 80.552 6.85607C80.6408 6.6389 81.2939 6.26552 81.5219 6.03691C81.6108 5.94547 81.5413 6.01405 81.6224 5.9188L81.6997 5.83117C81.7268 6.37601 81.6031 6.59318 81.6958 7.17231C81.9007 8.45249 82.3451 9.94985 82.975 11.0929L84.0261 12.8874C84.1807 13.2036 84.4744 13.4208 84.5362 13.6304H84.5285ZM84.3855 14.621C83.9952 14.5295 82.9982 13.4246 82.5383 13.1274C81.719 12.594 81.4176 12.1597 80.7413 11.5729L79.0603 9.90413C78.8748 9.69838 78.4497 9.24117 78.5309 8.88684C78.6352 8.43344 78.9366 8.65442 79.1221 8.06768L79.1376 8.01052C79.4545 8.37629 79.5356 9.60313 81.5104 11.5958C82.2253 12.3159 83.2069 13.7218 84.0493 14.259C84.3044 14.4229 84.3469 14.3886 84.3778 14.6248L84.3855 14.621ZM106.556 15.1315C107.325 14.038 106.869 14.3657 107.364 14.2362C107.221 13.859 107.17 14.4419 107.31 13.8133C107.402 13.9504 107.414 14.0228 107.46 13.8361L107.63 13.1998C107.638 13.1694 107.688 13.0284 107.704 12.9903C107.785 12.7845 107.769 12.8912 107.835 12.575C107.905 12.2397 107.746 10.7995 107.835 10.6395C108.036 10.8871 108.681 11.9844 108.666 12.3083C108.654 12.514 108.562 12.5826 108.577 12.8074C108.604 13.2036 108.794 13.2036 108.307 14.16C108.167 14.4343 107.974 14.6934 107.808 14.9487C107.538 15.3678 106.2 16.6136 105.887 16.8042C105.601 16.9794 105.389 17.1356 105.126 17.3223C104.241 17.9395 103.19 18.431 102.278 18.8921L100.949 19.414C100.172 19.6655 99.457 20.1265 99.1555 19.9398L101.482 18.8806C101.911 18.6635 102.239 18.4196 102.603 18.2177C102.796 18.111 102.974 18.05 103.171 17.9357C104.643 17.0785 104.709 16.8308 105.281 16.4765C105.447 16.3736 105.362 16.4765 105.528 16.305L106.027 15.7983C106.027 15.7983 106.054 15.7754 106.065 15.764C106.077 15.7526 106.088 15.7373 106.1 15.7297L106.564 15.1277L106.556 15.1315ZM77.0276 10.9557C77.0662 10.6966 77.3058 10.3385 77.472 10.1251C77.7695 10.2699 77.9705 10.5556 78.1637 10.7728C78.4072 11.0471 78.5154 11.1614 78.8052 11.4129L83.23 14.7353C83.23 14.7353 83.2571 14.7696 83.2648 14.7886L77.7193 11.4891C77.4217 11.3024 77.2169 11.1957 77.0314 10.9557H77.0276ZM99.569 11.0395C100.149 11.0471 101.412 11.07 101.83 11.512C102.56 12.2854 102.618 13.7218 102.085 14.64C101.196 16.1755 101.115 15.9621 100.095 17.067C99.9555 17.2156 99.7352 17.3985 99.569 17.4938C99.7159 17.2385 100.987 16.0726 101.138 15.4059C101.536 13.6532 100.029 12.3845 97.3972 13.9999C97.0533 14.2133 96.8291 14.3886 96.5007 14.6019C94.3211 16.0193 92.9067 17.9167 91.2334 19.8065C91.017 20.0503 90.7387 20.3551 90.5532 20.6256C89.9851 21.441 89.2045 22.2449 88.9147 22.6869C88.621 23.1403 87.5389 24.3176 86.9593 24.4929C87.0095 24.2719 87.7747 23.4794 88.08 23.1289L88.3041 22.9269C88.3041 22.9269 88.3273 22.9041 88.3311 22.8926C88.3427 22.8774 88.3775 22.8279 88.3853 22.8088L88.4935 22.6259C88.9147 21.9592 89.7494 20.7209 89.8731 20.0541C89.9194 19.8141 90.789 18.5415 91.0517 18.1186L91.5696 17.3795C91.6739 17.2461 91.6044 17.2575 91.7319 17.0251C91.8981 16.7127 91.9831 16.7622 92.0179 16.7203C92.2188 16.4612 91.929 16.9756 92.0372 16.6213C92.0797 16.4765 92.8449 15.7335 93.0033 15.5163L93.5791 14.8001C94.1085 14.2285 93.5327 14.5676 94.3288 13.9771L94.4486 13.8818C94.7075 13.6875 94.5916 13.7942 94.7771 13.5732C95.0283 13.276 94.7771 13.4437 95.1133 13.4284C95.0167 13.1808 94.9046 13.5008 95.0824 13.1732C95.1365 13.0703 95.2563 13.0093 95.3799 12.9103C95.3877 12.9179 95.3915 12.9255 95.3915 12.9407L95.4379 13.0703C95.4379 13.0703 95.4456 13.0931 95.4495 13.1046C95.5539 12.9674 95.5577 12.415 96.1026 12.5826C96.1644 12.4797 96.1374 12.4873 96.1181 12.3502C96.5973 12.5026 96.3615 12.373 96.3808 12.3502L96.4195 12.2892C96.5547 12.1406 97.8377 11.5044 98.2165 11.3786C98.6763 11.2262 99.0241 11.0281 99.569 11.0319V11.0395ZM78.6506 14.3086C78.2874 14.3086 77.6691 13.9885 77.3599 13.8628L76.0808 13.2684C75.845 13.1465 75.5861 13.1808 75.8837 12.7464C76.1233 12.3997 76.4479 12.3769 76.7648 12.6169C77.1512 12.9103 76.6875 12.6398 77.2556 12.7693C77.2285 12.9026 77.1628 12.8074 77.2208 12.9522C77.2324 12.9522 77.2517 12.9484 77.2556 12.9484C77.2594 12.9484 77.2865 12.9446 77.2942 12.9446C77.3019 12.9446 77.3251 12.9446 77.3329 12.9446C77.8043 12.9293 77.4758 13.1846 77.8662 13.2151C78.3917 13.257 78.7163 13.6342 79.1376 13.8514C79.3926 13.9809 79.4197 13.9276 79.4583 13.939L82.0823 15.2496C82.5228 15.463 83.4542 16.0574 83.9218 16.0726C83.8677 16.2707 84.1034 16.1945 83.3228 16.0002C82.604 15.8212 81.9586 15.5468 81.2824 15.3258L79.9259 14.8077C79.9066 14.8001 79.8486 14.7734 79.8293 14.7658L79.7443 14.7353C79.582 14.6858 79.7443 14.7353 79.6245 14.7086C79.0332 14.5829 79.1182 14.3162 78.697 14.4838C78.6545 14.32 78.8361 14.3581 78.6468 14.3086H78.6506ZM84.3855 14.621C84.6831 14.6591 84.4396 14.5829 84.7449 14.7772C84.915 14.8839 84.8879 14.861 85.0309 14.9944C85.2125 15.1658 85.398 15.2992 85.4521 15.5468C85.1043 15.2268 85.3053 15.3411 84.8261 15.0477L84.4628 14.7734C84.3894 14.6781 84.4396 14.7886 84.3855 14.6172V14.621ZM74.6277 15.7945C74.8403 15.5773 74.7359 15.6573 74.8016 15.3792C74.9098 14.9372 75.1378 14.9144 75.675 14.9601C76.2547 15.0134 76.301 14.8229 76.8575 15.0934C76.8653 15.0934 76.8807 15.1087 76.8884 15.1125L77.5222 15.0439C77.5222 15.0439 77.4797 15.0668 77.472 15.0744C77.0044 15.4135 77.3986 14.9105 77.3599 15.1811C77.3599 15.1887 77.3947 15.2115 77.4101 15.2115C77.6729 15.1925 77.329 15.1087 77.7618 15.1163C77.8855 15.1163 77.9203 15.1506 78.0632 15.1963L80.324 15.8326C80.5945 16.0002 80.4012 15.9088 80.7684 15.9697L81.1819 16.2593C81.3017 16.2022 81.3364 16.1374 81.4794 16.1755C81.7731 16.2517 81.6224 16.126 81.6881 16.5336C81.3249 16.385 81.5954 16.4079 81.2553 16.3965L78.2062 15.9736C75.7793 15.5926 76.7416 15.8173 74.6316 15.7945H74.6277ZM102.375 20.0922C103.654 19.5893 103.097 19.8979 104.674 19.1626C104.933 19.0407 105.057 19.0407 105.292 18.934C105.52 18.8311 105.594 18.7282 105.783 18.6406L107.34 17.7719C107.46 17.6957 107.642 17.5624 107.8 17.4519L108.005 17.2956C108.871 16.6975 109.597 16.2212 110.019 14.8763C110.03 14.8915 110.038 14.9144 110.042 14.9258L110.277 15.5392C110.301 15.6345 110.347 15.825 110.363 15.8974C110.409 16.126 110.382 16.0726 110.332 16.206L110.27 16.3622C109.694 17.8062 106.483 19.2121 104.84 19.616C104.245 19.7646 102.831 20.0999 102.375 20.0922ZM86.225 23.7842C86.1439 24.0738 86.0086 24.1042 85.8424 24.31C84.4358 26.0283 85.8192 26.7408 86.7197 26.3331L88.764 24.8853C89.0924 24.5843 89.332 24.2909 89.6721 24.0128C90.275 23.5213 90.7928 22.7859 91.3764 22.2259C92.5164 21.1324 92.8835 20.458 93.9076 19.4064C94.1858 19.1207 94.5259 18.9149 94.8273 18.6177C95.1249 18.3282 96.1026 17.3109 96.4543 17.109C96.6088 17.0175 96.5509 17.0747 96.7055 16.9375C97.1615 16.5374 98.5179 15.6992 99.0396 15.745C98.9932 16.1412 98.7111 17.0366 98.3015 17.1661C98.2744 16.888 98.2165 16.9413 98.2474 16.5717C97.5672 16.747 97.6716 16.7432 97.2581 17.1394L96.1181 18.2748C95.9558 18.4577 96.0601 18.4349 95.9017 18.6254C95.8901 18.6406 95.8437 18.6825 95.8282 18.6939L91.3416 23.9747C90.4064 24.9158 90.0238 25.0834 89.363 25.7006C88.4973 26.5084 88.3273 26.6227 87.3728 27.1294L86.6462 27.4647C86.3062 27.6362 85.9043 27.7352 85.4753 27.7314C84.7681 27.7238 84.9729 27.7733 84.6715 27.5219L84.5169 27.3923C83.9334 26.8094 84.6058 25.5444 85.0038 25.0339C85.2782 24.6796 85.8888 23.9633 86.2289 23.7804L86.225 23.7842ZM74.0906 18.5873C74.0983 18.0158 74.2181 17.9434 74.6548 17.7719C75.3002 17.5204 77.3986 17.3642 78.1135 17.4138L79.1801 17.4404C79.4545 17.5052 79.2767 17.4823 79.3462 17.5166C79.6399 17.6538 80.3781 17.5471 80.8689 17.6043C81.8968 17.7186 80.8418 17.81 82.4881 17.8252C82.5963 17.8252 82.9634 17.9434 83.1798 17.9738C83.6281 18.0348 84.5865 18.0462 85.085 18.252C84.8338 18.3472 82.1634 18.0081 81.6958 18.0043C81.1857 18.0043 80.8766 17.9357 80.4051 17.9319C79.3888 17.9205 78.6352 17.89 77.5763 17.9891C76.4943 18.092 75.6325 18.0348 74.5659 18.4082C74.2181 18.5301 74.4616 18.5606 74.0906 18.5911V18.5873ZM101.289 21.5515C101.374 21.4105 101.351 21.3915 101.54 21.3381C101.617 21.3153 101.78 21.281 101.857 21.2581C102.096 21.1895 102.193 21.1819 102.425 21.2581C103.233 21.5172 102.676 20.9876 103.704 21.0943C104.237 21.1514 104.025 20.9038 104.326 21.0143C104.67 21.1362 104.187 21.0333 104.427 21.0562C104.516 21.0638 104.601 21.0066 104.686 20.9647C105.118 20.7552 105.118 20.9343 105.389 20.8657C105.474 20.8466 105.779 20.698 106.023 20.6485C106.583 20.538 107.008 20.5647 107.541 20.4047C108.481 20.1189 110.351 19.2769 110.954 18.5987C111.031 19.2616 110.363 19.4674 109.829 19.9094C108.697 20.8504 107.155 20.9914 105.601 21.3076L104.168 21.4296C103.561 21.4981 102.483 21.5934 101.923 21.46L101.289 21.5477V21.5515ZM82.2601 19.1054C82.7586 19.1092 84.0532 18.9911 84.2155 19.0902L81.3171 19.456C79.5627 19.5817 79.9607 19.5931 78.4188 19.837C78.071 19.8941 78.0478 19.9094 77.7116 20.0008L76.3977 20.3056C75.9764 20.4351 75.1456 20.8504 74.7553 21.0943C74.0403 21.5439 74.3418 21.4219 74.1215 21.6734C74.0094 21.803 74.0867 21.7649 73.9128 21.8068C73.9399 21.3953 73.9128 20.9076 73.8703 20.6409L75.2035 19.9894C75.6557 19.8293 75.9301 19.8484 76.3358 19.6617C76.3667 19.6465 76.5329 19.6045 76.6372 19.5741C77.2942 19.3798 78.0748 19.2845 78.7125 19.2312L78.9984 19.2235C79.8795 19.2121 79.2574 19.3531 79.8911 19.1969C80.3665 19.0826 80.4051 19.254 80.9268 19.1511C81.3133 19.0749 81.8466 19.1016 82.2639 19.1054H82.2601ZM83.9682 20.0046C84.3469 19.917 85 19.7912 85.3478 19.8713C85.5912 19.9246 85.3478 19.8827 85.6647 19.7989C85.599 20.077 85.6608 20.0275 85.4057 20.0503C84.857 20.096 85.2202 19.9779 84.7565 20.0084L84.9768 20.2256L84.285 20.2675C84.4821 20.1418 84.3314 20.2865 84.4474 20.1151C84.1227 20.0046 84.3701 20.1075 84.1884 20.0846C83.9643 20.0541 84.0609 20.0846 83.972 20.0084L83.9682 20.0046ZM82.6929 20.3513C82.7045 20.3323 82.6968 20.3094 82.7431 20.218C82.7779 20.5571 82.6001 20.4428 82.9673 20.4047C82.9943 20.2751 82.8127 20.4047 83.0252 20.2637C83.2957 20.0846 83.4194 20.1799 84.0261 20.3018C84.2 20.3361 84.1111 20.3094 84.1768 20.3589C83.9798 20.4275 83.6049 20.5075 83.4078 20.5228C82.7199 20.5761 81.9973 20.8161 81.3519 21.0143C80.8457 21.1705 80.4399 21.2924 79.9723 21.4791C79.7404 21.5743 79.5472 21.6429 79.2999 21.7344L77.4836 22.4735C77.043 22.7402 76.3667 22.9993 75.7716 23.468L74.3727 24.7748C74.1253 23.9861 74.1138 24.0547 74.4306 23.6889L74.8596 23.2698C76.1928 22.1802 76.6218 21.8487 78.4072 21.3343C79.4738 21.0257 78.5154 21.0752 79.81 21.0867L79.5317 20.9685C79.8486 20.9609 79.7636 20.9076 79.953 20.8962C80.2853 20.8771 79.9337 20.98 80.3781 20.919C80.6022 20.8885 80.3587 20.9266 80.5211 20.8276L80.6602 20.7476C80.6602 20.7476 80.9423 20.6447 80.9771 20.6333C81.2862 20.5304 81.4949 20.4961 81.7461 20.6104C81.8736 20.397 81.5799 20.4999 81.9625 20.3856C82.063 20.679 81.6263 20.4732 82.0089 20.5456C82.0475 20.5533 82.0166 20.5571 82.0591 20.5342L82.1132 20.4885C82.2137 20.3894 82.1132 20.3742 82.2485 20.3323C82.6388 20.2065 82.5576 20.3932 82.604 20.5037C82.6658 20.4275 82.6349 20.4732 82.689 20.3589L82.6929 20.3513ZM84.8299 23.5823C84.6676 23.948 84.1962 24.2909 83.9025 24.5729C83.4117 25.0453 82.519 26.0817 82.2987 26.6875C81.9007 27.7886 81.8156 28.1772 82.0514 29.2859C82.0823 29.4345 82.1596 29.6441 82.2214 29.7431C82.3026 29.8727 82.2214 29.7698 82.3528 29.8993C83.5585 31.0843 83.7324 31.0157 85.2975 31.0309C85.5912 31.0309 86.0666 30.8519 86.3062 30.7871C86.6424 30.6995 86.9786 30.5623 87.3071 30.4251C88.308 30.0136 88.9263 29.545 89.7301 28.863C89.9813 28.6496 90.2093 28.4363 90.445 28.2191L93.0303 25.4606C93.2661 25.1863 93.4052 24.9158 93.6062 24.6834C94.1433 24.0737 94.5375 23.3727 94.9471 22.6678L95.4302 21.803C95.5925 21.4981 95.9828 20.6942 96.2224 20.5456L96.0987 21.0448C96.0176 21.3572 96.0099 21.2924 95.9017 21.5782L95.4804 22.9879C95.0862 24.0966 94.5916 25.3006 93.9887 26.2836L92.9724 28.0515C91.8556 29.9946 90.1513 31.6977 88.1611 32.7874C87.5621 33.115 85.6724 33.7094 85.0232 33.6713C84.5942 33.6446 83.261 33.2789 82.8706 33.1074C82.1673 32.8026 81.9857 32.6997 81.406 31.8577C80.6486 30.7566 80.7452 31.2138 80.5017 30.0251C80.2776 28.9278 80.3781 28.7792 80.7916 27.88C81.1123 27.1828 81.9625 26.0931 82.5924 25.5444C83.145 25.0606 84.3237 23.7156 84.8261 23.5823H84.8299ZM83.6435 21.1781C83.9759 21.1781 83.945 21.1552 84.2271 21.0638L84.3082 21.0409C84.3082 21.0409 84.3392 21.0409 84.3507 21.0371L85.9429 20.7285C85.7381 20.8771 85.5719 20.9114 85.3246 20.9876C84.486 21.2467 85.0463 21.0905 84.6831 21.0867C84.6831 21.0867 84.4512 21.1514 84.3585 21.1667C84.656 21.2276 84.5169 21.2162 84.5826 21.281L83.8909 21.5553C83.7402 21.4258 83.8677 21.4905 83.6435 21.4486V21.1781ZM83.2803 21.5896C83.431 21.601 83.5701 21.5743 83.7092 21.502C83.6049 21.7687 81.5335 22.6297 81.1394 22.8012C80.8959 22.9079 80.78 22.9765 80.5442 23.1289C79.5472 23.7766 78.84 23.8451 77.6498 25.1482L77.4024 25.3958C77.1049 25.6702 77.3908 25.4987 76.8189 26.1045C76.8073 26.1159 76.7957 26.1312 76.7841 26.1426C76.7764 26.154 76.7609 26.1693 76.7532 26.1769C75.9339 27.0989 76.0537 28.7677 75.8412 29.0954C75.7948 29.0192 75.5204 28.242 75.4779 28.1277C75.3427 27.7733 75.1803 27.4952 75.3388 26.9618C75.4818 26.4817 76.0808 25.613 76.4208 25.2663C77.4797 24.1919 77.4333 24.3557 78.3647 23.6127L78.8555 23.2927C79.1028 23.0984 79.2071 23.026 79.4892 23.1517C79.497 23.1403 79.5047 23.106 79.5047 23.1136L79.5472 23.0031C79.5627 22.965 79.5781 22.9041 79.6052 22.8545C79.8177 22.9155 79.7481 22.866 79.8486 23.0336C79.953 22.8926 79.8216 22.5421 80.2042 22.8317C80.266 22.424 80.2273 22.6221 80.6718 22.4659L80.7722 22.4392C80.8804 22.3821 80.8843 22.3326 81.008 22.2183C81.0196 22.2335 81.0312 22.2411 81.035 22.264C81.035 22.2906 81.0698 22.3287 81.0737 22.3402C81.0737 22.3516 81.0737 22.3859 81.0814 22.4088C81.236 22.1992 81.0196 22.3021 81.3249 22.123C81.5258 22.0049 81.3751 22.0925 81.5181 22.062C81.5374 22.0582 81.5954 22.0544 81.6108 22.0506C82.0243 21.9554 81.6495 21.9325 81.9973 21.9058C82.1673 21.8944 82.1132 21.9058 82.3296 21.7039C82.4262 21.7649 82.403 21.9401 82.8861 21.7649C82.6736 21.3496 82.8127 21.7687 82.5306 21.6887L82.8166 21.4905C83.0561 21.5782 83.0136 21.6696 83.2764 21.6544C83.1644 21.5629 83.1759 21.5705 83.203 21.3724C83.3808 21.3534 83.4426 21.3191 83.5624 21.2619C83.5199 21.4791 83.5431 21.3419 83.3576 21.521L83.2919 21.5934L83.2803 21.5896ZM111 22.1802C110.962 22.283 110.962 22.3287 110.737 22.4735C110.687 22.504 110.703 22.5078 110.587 22.5497C110.378 22.6221 110.111 22.5993 109.845 22.6602C109.609 22.7136 109.454 22.7898 109.25 22.8164C108.26 22.946 107.147 22.9498 106.123 22.9384L105.192 22.9917C104.871 22.9917 102.324 22.8431 102.1 22.725C101.934 22.6374 101.934 22.5383 101.926 22.4735C102.208 22.5192 101.957 22.5612 102.452 22.5688C102.475 22.5688 102.537 22.5688 102.56 22.5688L102.862 22.584C103.217 22.6297 103.777 22.4354 104.21 22.6335C104.519 22.7745 104.237 22.6069 104.574 22.6107C104.577 22.6107 104.724 22.6526 104.763 22.6602C105.026 22.7059 104.856 22.6755 105.211 22.645L105.489 22.6031C105.914 22.4278 105.621 22.4583 106.278 22.5002C106.842 22.5383 107.244 22.4126 107.735 22.3707C108.569 22.2983 109.934 22.1344 110.672 21.8144C110.741 21.7839 110.931 21.681 110.934 21.681C111.128 21.6315 111.012 21.9439 111.008 22.1763L111 22.1802ZM78.4226 30.8404C78.4111 32.0901 78.8516 32.6883 79.6052 33.7513C79.7559 33.9647 80.0071 34.2009 80.1076 34.4638C79.6361 34.2885 79.9607 34.3152 79.6438 34.0714C79.2458 33.7666 79.609 33.9875 79.3153 33.6751L79.1221 33.4998C78.9791 33.3665 78.9212 33.2103 78.6159 33.2141C78.8091 32.9474 78.585 32.9283 78.3956 32.7988L78.214 32.574C78.214 32.574 78.1985 32.5397 78.1908 32.5245L77.8391 31.9453C77.6034 31.4424 77.5647 29.907 77.5686 29.2669C77.5725 28.802 78.214 27.2818 78.442 26.9351C79.0448 25.9978 80.865 24.3938 81.8504 23.8604C82.0939 23.727 82.1325 23.7042 82.3373 23.5632C82.6001 23.3803 82.6968 23.4222 82.9132 23.2813L83.9141 22.7174C83.9141 23.0603 83.8329 22.7745 83.2455 23.2622C81.7615 24.489 81.4447 24.5119 79.8602 26.4322C79.381 27.0151 79.1028 27.6704 78.8284 28.3372C78.5038 29.1259 78.4342 29.8269 78.4226 30.8328V30.8404ZM100.45 23.6966C100.91 23.7004 102.475 23.9937 102.9 24.1271C103.627 24.3557 107.027 24.771 108.117 24.8472C108.566 24.8777 109.11 24.7939 109.474 24.6872C109.744 24.6072 109.868 24.6529 110.15 24.5843C110.567 24.489 110.312 24.4052 110.71 24.3824C110.726 24.6415 110.641 24.8053 110.533 24.9767C110.065 25.0148 109.632 24.9996 109.222 25.0796C108.766 25.171 108.299 25.2358 107.893 25.2358C107.128 25.2358 104.867 24.8472 104.075 24.611C103.511 24.4433 100.806 24.0471 100.454 23.6966H100.45ZM109.242 27.057C109.783 27.0608 109.736 26.9732 110.015 27.137L109.941 27.5523C109.791 27.4799 109.837 27.5066 109.76 27.3695L109.621 27.7314C109.539 27.8914 109.733 27.8305 109.59 27.7505C109.311 27.9486 108.79 27.7352 108.26 27.5714C107.673 27.3847 107.916 27.5295 106.989 27.1904C106.154 26.8818 105.377 26.6379 104.589 26.2836L101.335 25.0263C101.254 24.9844 101.273 24.992 101.192 24.9501L99.8511 24.3976C100.191 24.2643 100.566 24.5233 100.748 24.6033C100.763 24.611 100.782 24.6186 100.802 24.6262L105.458 26.2188C105.605 26.2683 105.555 26.2493 105.733 26.2988L106.656 26.5389C107.306 26.6875 108.616 27.0532 109.242 27.057ZM97.5363 25.4835C97.7798 25.5902 97.6523 25.8569 97.946 26.2569C98.2976 26.7408 99.2251 29.1907 99.4454 29.926C99.6077 30.467 99.569 30.6042 99.6309 30.8938C99.6579 31.0119 99.7236 31.069 99.8048 31.3129C100.191 32.5168 100.218 35.0505 99.7236 36.3955C99.7198 36.4069 99.712 36.4298 99.7082 36.4412L98.6532 37.7557C98.3595 37.9919 98.1005 38.03 97.5286 38.27L96.1799 38.6777C96.234 38.5977 96.2108 38.5672 96.3306 38.4263L97.0765 37.5309C97.3276 37.2032 97.6523 36.5479 97.7952 36.1135C97.8648 35.8964 97.9885 35.5763 98.0812 35.3172C98.6029 33.8466 98.7575 30.5128 98.3247 28.9049L97.9305 27.179C97.8532 26.9046 97.6677 25.7426 97.5363 25.4835ZM99.9593 26.1845C100.45 26.1921 100.35 26.375 100.62 26.4969L101.432 27.0227C101.629 27.1561 101.834 27.2094 102.096 27.4342L103.658 28.5163C103.781 28.5963 103.658 28.5163 103.777 28.6115C103.793 28.6268 103.843 28.6649 103.859 28.6801L104.295 28.9773C104.295 28.9773 104.311 29.0002 104.315 29.004C104.396 29.1183 104.237 29.225 104.481 28.9773C104.519 29.4497 104.62 29.1983 104.84 29.2592C104.867 29.3393 104.84 29.3393 104.84 29.3583C104.836 29.4155 104.809 29.2707 104.817 29.4955L105.072 29.4269C105.072 29.4269 105.111 29.4116 105.13 29.4078C105.142 29.8041 105.03 29.6326 105.227 29.7812C105.362 29.8841 105.246 29.8612 105.327 29.6593C105.327 29.6517 105.331 29.6288 105.343 29.6136C105.447 29.7584 105.88 30.0403 106.046 30.2575L106.854 31.0995C107.422 31.7777 107.758 31.6596 106.629 32.9245L106.68 32.4597C106.618 32.4521 106.541 32.7035 106.347 32.2959C106.054 31.6786 105.837 31.3548 105.385 30.768C105.273 30.6271 105.169 30.4861 105.026 30.3375L100.933 26.9389C100.786 26.8094 100.81 26.7903 100.728 26.7179L99.9632 26.1731L99.9593 26.1845ZM96.8755 29.7507C96.8678 30.5737 96.5432 31.6558 96.3924 32.414C96.2301 33.2408 95.5964 34.4409 95.1945 35.2144L94.9433 35.6335C94.8969 35.7059 94.8776 35.7287 94.8389 35.7859C94.1704 36.8527 94.6727 36.2164 93.954 36.9632C93.9385 36.9784 93.8999 37.028 93.8844 37.0432L93.5907 37.3213C93.5211 37.4128 93.6487 37.3061 93.5211 37.4128L92.7792 37.8433C91.2913 38.6396 89.5639 38.6472 87.9408 38.4415C87.2568 38.3539 87.4501 38.2967 87.2839 38.2624C87.1795 38.2434 87.195 38.2624 87.0172 38.3043C86.8356 38.2853 86.8008 37.9005 86.3912 38.0262C86.2018 38.0834 86.5805 38.0148 86.2289 38.1138C86.2211 38.1062 86.2211 38.0757 86.2173 38.0834C86.2173 38.0834 86.1864 37.9424 86.0472 37.8738L85.4289 37.6223C84.942 37.4623 83.9141 36.8946 83.6165 36.9365C83.6049 36.9365 83.516 36.9899 83.4735 37.0013C83.4735 36.5136 83.1064 36.4679 82.9673 36.7879L82.917 36.3688C83.0561 36.3688 82.9711 36.3688 83.033 36.3993L83.2378 36.5174C83.7131 36.7308 84.8493 36.9784 85.3671 37.0661C86.055 37.1842 85.7535 37.2489 86.5921 37.2566C86.8356 37.2566 86.8549 37.1499 87.1602 37.1537C87.4114 37.1575 87.4346 37.1994 87.6974 37.1651C88.2616 37.0889 88.3505 37.1346 88.907 36.9784C89.7224 36.7498 89.819 36.5708 90.4682 36.1707C90.646 36.064 90.7696 35.9573 90.9242 35.843C91.6005 35.3439 92.4314 34.6276 92.8333 33.8999C92.9646 33.6599 92.9878 33.6599 93.1579 33.4465C93.6371 32.8445 93.9346 32.1473 94.2592 31.4805L95.1403 29.3697C95.2215 29.1107 95.1403 29.0535 95.2486 28.8363C95.4997 28.3105 95.6852 27.6971 95.8282 27.0418L96.3074 24.3938C96.4156 23.9937 96.3074 23.2012 96.4272 22.9612C96.7055 23.1327 96.4543 22.8812 96.5973 23.6813C96.9064 25.4378 96.7441 24.4776 96.7827 26.2722L96.8175 28.8173C96.8137 29.1792 96.8716 29.465 96.8716 29.7355L96.8755 29.7507ZM102.977 26.6074L103.77 26.9961C103.77 26.9961 103.793 27.0265 103.801 27.038C103.808 27.0494 103.824 27.0723 103.828 27.0799C103.835 27.0875 103.843 27.1142 103.855 27.1256L103.897 27.0608C103.897 27.0608 103.909 27.0342 103.913 27.0304C103.913 27.0304 103.92 26.9846 103.932 26.9542C104.496 27.1485 103.951 26.9808 104.179 27.3085C104.728 27.0075 104.334 27.3542 105.053 27.4457C104.948 27.7543 104.921 27.4838 104.945 27.6171C104.968 27.7505 105.037 27.6019 105.157 27.6019C105.308 27.6019 105.319 27.6285 105.424 27.7047C105.497 27.7581 105.435 27.7238 105.544 27.8C105.555 27.8076 105.574 27.8229 105.586 27.8305C105.814 27.9867 106.096 28.0362 106.428 28.2648L106.734 28.4096C106.757 28.4172 106.884 28.4401 106.946 28.4629C107.058 28.5087 106.997 28.4896 107.058 28.5201L108.11 28.9773C108.225 29.0268 108.31 29.0764 108.438 29.1449C108.674 29.2707 108.786 29.4116 108.832 29.6555C108.685 29.865 108.581 29.9031 108.566 30.2232C108.198 30.1584 107.503 29.5374 107.182 29.3126L103.588 27.1142C103.032 26.6303 103.136 26.8932 102.981 26.6074H102.977ZM99.1285 27.0189C99.569 27.3314 101.366 29.9565 101.725 30.7337C102.297 31.9682 102.263 31.6024 102.753 33.096C102.815 33.2827 102.912 33.6522 102.939 33.8656C103.132 35.4468 102.916 35.0886 102.815 35.9611C102.761 36.4336 102.854 36.2126 102.471 36.5936C101.903 37.1613 102.259 37.0584 101.501 37.0623C101.517 36.5136 101.644 36.5098 101.718 35.6906C101.756 35.2601 101.803 34.8181 101.737 34.2961C101.675 33.8199 101.575 33.3589 101.501 32.8902C101.42 32.3644 101.266 32.0635 101.119 31.5834C100.682 30.1813 100.303 29.4231 99.712 28.12C99.4918 27.6285 99.457 27.7733 99.1285 27.0189ZM100.292 27.3275L102.127 28.8744C102.804 29.4345 102.456 29.0002 103.148 29.8498C103.198 29.9108 103.19 29.8917 103.236 29.9755C103.244 29.987 103.252 30.006 103.256 30.0174C103.461 30.4289 103.035 29.8269 103.434 30.2575C103.58 30.4175 103.464 30.3756 103.534 30.5204C103.542 30.5204 103.557 30.5128 103.557 30.5204C103.604 30.7147 103.576 30.5204 103.642 30.5128H103.708C103.82 30.9623 103.708 30.5585 103.905 30.848L103.998 31.0043C104.175 31.2367 104.191 31.1224 104.446 31.5377C104.844 32.1778 105.42 32.7721 105.428 33.5799C105.428 33.8199 105.428 33.6713 105.443 33.778C105.478 33.9723 105.578 33.7285 105.431 34.0714C105.227 34.5438 105.06 34.5743 104.802 34.7457C104.57 34.8943 104.631 34.9515 104.403 34.9439C104.442 34.761 104.295 34.9896 104.465 34.8791L104.616 34.8029C104.102 34.1285 104.438 34.4943 104.272 33.6599C104.206 33.3284 103.538 31.9034 103.406 31.7015L100.288 27.3352L100.292 27.3275Z" fill="white"/>
</svg>
